<?xml version="1.0" encoding="utf-8"?>
<!-- Generator: Adobe Illustrator 26.0.1, SVG Export Plug-In . SVG Version: 6.00 Build 0)  -->
<svg version="1.1" id="Object" xmlns="http://www.w3.org/2000/svg" xmlns:xlink="http://www.w3.org/1999/xlink" x="0px" y="0px"
	 viewBox="0 0 967.7 655" style="enable-background:new 0 0 967.7 655;" xml:space="preserve">
<style type="text/css">
	.st0{fill:#FF4C8F;}
	.st1{fill:#303A69;}
	.st2{fill:#006AD4;}
	.st3{fill:#FFFFFF;}
	.st4{fill:#EFEFEF;}
	.st5{fill:#E5E5E5;}
	.st6{fill:#0C89E5;}
	.st7{fill:#1B8CF5;}
	.st8{fill:#F4629D;}
	.st9{fill:#FF77AB;}
	.st10{opacity:0.25;}
	.st11{fill:#262E5B;}
	.st12{fill:#FFF1B6;}
	.st13{opacity:0.7;}
	.st14{fill:#FF6EB2;}
	.st15{fill:#FF98B8;}
	.st16{fill:#DAD0A2;}
	.st17{fill:#D6D6D6;}
	.st18{fill:#118A93;}
	.st19{fill:#249AAA;}
	.st20{fill:#32C4CE;}
	.st21{opacity:0.5;}
	.st22{fill:#FFF8D9;}
	.st23{fill:none;stroke:#FFFFFF;stroke-width:4.1314;stroke-miterlimit:10;}
	.st24{fill:none;stroke:#FFFFFF;stroke-width:4.1314;stroke-miterlimit:10;stroke-dasharray:9.6942,9.6942;}
	.st25{fill:#CCCCCC;}
	.st26{fill:none;stroke:#FFFFFF;stroke-width:4.1314;stroke-miterlimit:10;stroke-dasharray:9.7134,9.7134;}
	.st27{fill:#C1C1C1;}
	.st28{fill:#35427C;}
	.st29{fill:#DBDBDB;}
	.st30{fill:#00FFFF;}
	.st31{fill:#79B1BA;}
	.st32{fill:#D4F0FC;}
	.st33{fill:#01303F;}
	.st34{opacity:0.55;fill:#00FFFF;}
	.st35{opacity:0.8;fill:#FFFFFF;}
	.st36{opacity:0.8;}
	.st37{opacity:0.8;fill:#00FFFF;}
</style>
<g id="Background_1_">
	
		<ellipse transform="matrix(0.7863 -0.6179 0.6179 0.7863 -381.8825 172.2405)" class="st0" cx="58" cy="638.2" rx="18.1" ry="7.5"/>
	<g>
		<path class="st1" d="M887.9,130.3c-18.9-33.2-46.1-53.3-60.7-44.9c-1.6,0.9-3,2.1-4.1,3.6c-6-10.2-13.6-16.1-19-14
			c-6.9,2.7-7.6,17.7-1.5,33.4c5.1,13.2,13.4,22.7,20,23.9c2.8,9,7,18.6,12.5,28.2c18.9,33.2,46.1,53.3,60.7,44.9
			C910.3,197.1,906.8,163.5,887.9,130.3z"/>
		<path class="st1" d="M167.7,174.1c8.1-7.7,14.5-16,18.6-23.7c3.8-1.1,8-3.2,12.2-6.1c10-7,15.7-16.3,12.6-20.8
			c-2.8-3.9-11.5-2.7-20.4,2.6c-0.5-1-1.1-1.9-1.8-2.6c-8.4-8.9-31.5-0.6-51.6,18.5c-20.1,19.1-29.6,41.7-21.1,50.6
			C124.5,201.5,147.6,193.2,167.7,174.1z"/>
		<path class="st1" d="M537,0c-10.8,0-21.4,0.6-31.9,1.7C622.7,23.1,716.4,112.6,744,227.9C714.4,147.7,651.8,83.6,572.7,52
			c40.6,22.3,73.6,56.6,94.2,98.2C627.4,83.5,554.7,38.8,471.6,38.8c-95.6,0-177.3,59.1-210.7,142.7c-4.7,0.7-9.4,1.5-14.1,2.5
			c18.8-61.1,62.8-111.2,119.8-138.2C287.1,72,222.3,130.5,187.5,205.7C117,243.4,69.1,317.8,69.1,403.3
			c0,98,62.9,181.3,150.5,211.7C120.3,592,46.4,503,46.4,396.7c0-64.8,27.5-123.2,71.5-164.1C52.4,271.8,8.5,343.4,8.5,425.2
			c0,123.8,100.3,224.1,224.1,224.1c38.2,0,74.1-9.6,105.5-26.4c8.1-1.7,16.1-3.8,23.8-6.3c31.1,10.8,64.4,16.7,99.2,16.7
			c54.5,0,105.7-14.5,149.8-39.8c130.7-32.9,227.5-151.3,227.5-292.2C838.4,134.9,703.5,0,537,0z"/>
	</g>
	<ellipse transform="matrix(0.874 -0.486 0.486 0.874 -296.9104 100.1919)" class="st2" cx="44.7" cy="622.6" rx="8.7" ry="3.6"/>
	<ellipse transform="matrix(0.874 -0.486 0.486 0.874 -299.4222 107.0624)" class="st2" cx="56.7" cy="630.9" rx="2.4" ry="1"/>
	<ellipse transform="matrix(0.874 -0.486 0.486 0.874 -308.1368 101.4538)" class="st2" cx="41.6" cy="644.9" rx="12.1" ry="5"/>
	<ellipse transform="matrix(0.5429 -0.8398 0.8398 0.5429 95.6052 993.199)" class="st2" cx="960.1" cy="408.8" rx="3.6" ry="8.7"/>
	<ellipse transform="matrix(0.5429 -0.8398 0.8398 0.5429 88.2654 999.8938)" class="st2" cx="962.6" cy="418.9" rx="1" ry="2.4"/>
	
		<ellipse transform="matrix(0.5429 -0.8398 0.8398 0.5429 74.5599 977.0926)" class="st0" cx="934.8" cy="420.1" rx="10.6" ry="25.5"/>
	<ellipse transform="matrix(0.7863 -0.6179 0.6179 0.7863 -140.7092 80.66)" class="st0" cx="46.2" cy="243.7" rx="12.7" ry="5.3"/>
	<ellipse transform="matrix(0.5429 -0.8398 0.8398 0.5429 53.1438 996.6266)" class="st0" cx="942" cy="449.5" rx="3" ry="7.1"/>
	<ellipse transform="matrix(0.7863 -0.6179 0.6179 0.7863 -161.7235 88.395)" class="st0" cx="46.9" cy="278" rx="5.4" ry="2.2"/>
	
		<ellipse transform="matrix(0.7863 -0.6179 0.6179 0.7863 -122.4515 82.6511)" class="st0" cx="58.3" cy="218.3" rx="9.4" ry="3.9"/>
	<ellipse transform="matrix(0.5429 -0.8398 0.8398 0.5429 85.0736 980.4147)" class="st2" cx="943.1" cy="412.1" rx="5" ry="12.1"/>
</g>
<g id="Geek_Books">
	<g>
		<g>
			<rect x="729.2" y="286.8" class="st2" width="178.5" height="320.4"/>
		</g>
		<g>
			<rect x="696.3" y="298.6" class="st3" width="197.3" height="302.7"/>
		</g>
		<g>
			<polygon class="st4" points="867,298.6 880.8,601.3 795,601.3 795,298.6 			"/>
		</g>
		<g>
			<rect x="855.1" y="298.6" class="st5" width="1" height="302.7"/>
		</g>
		<g>
			<rect x="862.3" y="298.6" class="st5" width="1" height="302.7"/>
		</g>
		<g>
			<rect x="869.6" y="298.6" class="st5" width="1" height="302.7"/>
		</g>
		<g>
			<rect x="876.9" y="298.6" class="st5" width="1" height="302.7"/>
		</g>
		<g>
			<rect x="884.1" y="298.6" class="st5" width="1" height="302.7"/>
		</g>
		<g>
			<path class="st6" d="M858,607.2H690.6c-7.4,0-13.5-6-13.5-13.5V296c0-7.4,6-13.5,13.5-13.5H858V607.2z"/>
		</g>
		<g>
			<path class="st7" d="M850.3,607.2H685.1c-7.3,0-13.3-5.9-13.3-13.3V300.1c0-7.3,5.9-13.3,13.3-13.3h165.2V607.2z"/>
		</g>
		<g>
			<rect x="843.8" y="286.8" class="st6" width="6.5" height="320.4"/>
		</g>
	</g>
	<g>
		<g>
			<rect x="656" y="314.3" class="st0" width="176.9" height="294.1"/>
		</g>
		<g>
			<rect x="623.4" y="326" class="st3" width="195.6" height="276.6"/>
		</g>
		<g>
			<polygon class="st4" points="792.7,326 806.4,602.6 721.2,602.6 721.2,326 			"/>
		</g>
		<g>
			<rect x="780.9" y="326" class="st5" width="1" height="276.6"/>
		</g>
		<g>
			<rect x="788.1" y="326" class="st5" width="1" height="276.6"/>
		</g>
		<g>
			<rect x="795.2" y="326" class="st5" width="1" height="276.6"/>
		</g>
		<g>
			<rect x="802.4" y="326" class="st5" width="1" height="276.6"/>
		</g>
		<g>
			<rect x="809.6" y="326" class="st5" width="1" height="276.6"/>
		</g>
		<g>
			<path class="st8" d="M783.7,608.4h-166c-7.3,0-13.3-6-13.3-13.3V323.5c0-7.3,6-13.3,13.3-13.3h166V608.4z"/>
		</g>
		<g>
			<path class="st9" d="M776.1,608.4H612.3c-7.2,0-13.1-5.9-13.1-13.1V327.5c0-7.2,5.9-13.1,13.1-13.1h163.8V608.4z"/>
		</g>
		<g>
			<rect x="769.7" y="314.3" class="st8" width="6.5" height="294.1"/>
		</g>
	</g>
	<g>
		<g>
			<path class="st3" d="M682.8,602.6H509.5c-7.7,0-13.9-6.2-13.9-13.9V280.2c0-7.7,6.2-13.9,13.9-13.9h173.4V602.6z"/>
		</g>
		<g>
			<rect x="562.5" y="270.7" class="st2" width="187.3" height="336.3"/>
		</g>
		<g>
			<rect x="528" y="283.1" class="st3" width="207.1" height="317.7"/>
		</g>
		<g>
			<polygon class="st4" points="707.2,283.1 721.7,600.9 631.6,600.9 631.6,283.1 			"/>
		</g>
		<g>
			<rect x="694.7" y="283.1" class="st5" width="1.1" height="317.7"/>
		</g>
		<g>
			<rect x="702.3" y="283.1" class="st5" width="1.1" height="317.7"/>
		</g>
		<g>
			<rect x="709.9" y="283.1" class="st5" width="1.1" height="317.7"/>
		</g>
		<g>
			<rect x="717.5" y="283.1" class="st5" width="1.1" height="317.7"/>
		</g>
		<g>
			<rect x="725.1" y="283.1" class="st5" width="1.1" height="317.7"/>
		</g>
		<g>
			<path class="st6" d="M692.2,607H516.5c-7.8,0-14.1-6.3-14.1-14.1V280.4c0-7.8,6.3-14.1,14.1-14.1h175.7V607z"/>
		</g>
		<g>
			<path class="st7" d="M689.7,607H516.3c-7.7,0-13.9-6.2-13.9-13.9V284.7c0-7.7,6.2-13.9,13.9-13.9h173.4V607z"/>
		</g>
		<g class="st10">
			<path class="st11" d="M516.3,607h173.4V401C631.5,355.3,502.4,363,502.4,363v230.1C502.4,600.8,508.6,607,516.3,607z"/>
		</g>
		<g>
			<rect x="682.8" y="270.7" class="st6" width="6.9" height="336.3"/>
		</g>
		<g>
			<path class="st3" d="M594.6,277.4h-76.1c-1.1,0-1.9-0.9-1.9-1.9l0,0c0-1.1,0.9-1.9,1.9-1.9h76.1c1.1,0,1.9,0.9,1.9,1.9l0,0
				C596.5,276.6,595.7,277.4,594.6,277.4z"/>
		</g>
		<g>
			<path class="st3" d="M620.6,277.4h-17.1c-1.1,0-1.9-0.9-1.9-1.9l0,0c0-1.1,0.9-1.9,1.9-1.9h17.1c1.1,0,1.9,0.9,1.9,1.9l0,0
				C622.5,276.6,621.7,277.4,620.6,277.4z"/>
		</g>
	</g>
	<g>
		<polygon class="st12" points="809.1,131.4 825.8,139.1 821.6,152.4 840.7,160.7 826.6,149.3 830.5,137.3 		"/>
	</g>
	<g>
		<polygon class="st12" points="849.7,110.1 847.4,128.8 859.4,132.7 851.8,152.7 867.7,130.5 852.9,125.6 		"/>
	</g>
	<g>
		<polygon class="st12" points="877.1,151.6 880.8,140.7 887.3,143.6 902.5,137.8 887.3,147.5 882.6,144.7 		"/>
	</g>
	<g>
		<g>
			<g>
				<path class="st3" d="M902.9,247.4l-23.3,6.3v-5.9h1.7v-21.7c0-5.1-4.2-9.3-9.3-9.3c-5.1,0-9.3,4.2-9.3,9.3v21.7h1.4v13
					c0,0.8,0.1,1.5,0.3,2.2c-0.2,0.7-0.3,1.5-0.3,2.2c0,3.8,3.1,5.9,6.9,4.7l31.9-12.1c3.7-0.9,6.8-3.4,6.9-7.1
					C909.6,248,906.6,246.5,902.9,247.4z"/>
			</g>
			<g>
				<path class="st3" d="M909.8,250.4c0,0.1,0,0.2,0,0.3c0,0.1,0,0.1,0,0.2V250.4z"/>
			</g>
		</g>
		<g>
			<g>
				<path class="st11" d="M900.5,246.2l-23.3,6.3v-5.9h1.7v-21.7c0-5.1-4.2-9.3-9.3-9.3s-9.3,4.2-9.3,9.3v21.7h1.4v13
					c0,0.8,0.1,1.5,0.3,2.2c-0.2,0.7-0.3,1.5-0.3,2.2c0,3.8,3.1,5.9,6.9,4.7l31.9-12.1c3.7-0.9,6.8-3.4,6.9-7.1
					C907.2,246.8,904.2,245.3,900.5,246.2z"/>
			</g>
			<g>
				<path class="st11" d="M907.4,249.2c0,0.1,0,0.2,0,0.3c0,0.1,0,0.1,0,0.2V249.2z"/>
			</g>
		</g>
		<g>
			<path class="st11" d="M886,335.9c-0.3-0.5-0.6-0.9-0.9-1.3l5.8-37.4l0.7-4.4l0.1-0.7h0c1.1-9.5-5.5-17-15.2-17H857h-14.3h-19.5
				l-0.7,4.5c-1.5,9.7,5.2,17.6,15,17.6h16.6l-0.7,27.9c-0.3,1.6-0.2,3.2,0.1,4.6c-0.3,0.1-0.5,0.3-0.8,0.4c-3.6,2.5-3.6,9.2,0,14.9
				c3.6,5.7,9.6,8.3,13.2,5.8c3.6-2.5,3.6-9.2,0-14.9c-0.1-0.2-0.3-0.4-0.4-0.6l5.9-38.1h2.2l-0.7,27.9c-0.3,1.8-0.2,3.4,0.2,5
				c-0.1,0-0.1,0.1-0.2,0.1c-3.6,2.5-3.6,9.2,0,14.9c3.6,5.7,9.6,8.3,13.2,5.8C889.7,348.3,889.7,341.6,886,335.9z"/>
		</g>
		<g>
			<path class="st3" d="M902.7,334c-0.4-0.5-0.8-0.9-1.2-1.4V294v-4.5v-0.7h0c-0.4-9.8-8.4-17.6-18.2-17.6h-34.6v4.7
				c0,10,8.1,18.1,18.1,18.1h17l3.7,28.8c0,1.8,0.4,3.5,1,5.1c-0.1,0-0.1,0.1-0.2,0.1c-3.3,2.6-2.3,9.5,2.4,15.4
				c4.6,5.9,11.1,8.6,14.4,5.9C908.5,346.8,907.4,339.9,902.7,334z"/>
		</g>
		<g>
			<path class="st11" d="M900.3,334.6c-0.4-0.5-0.8-0.9-1.2-1.4v-38.6v-4.5v-0.7h0c-0.4-9.8-8.4-17.6-18.2-17.6h-34.6v4.7
				c0,10,8.1,18.1,18.1,18.1h17l3.7,28.8c0,1.8,0.4,3.5,1,5.1c-0.1,0-0.1,0.1-0.2,0.1c-3.3,2.6-2.3,9.5,2.4,15.4
				c4.6,5.9,11.1,8.6,14.4,5.9C906,347.4,904.9,340.5,900.3,334.6z"/>
		</g>
		<g class="st13">
			<path class="st11" d="M782.2,282.4c-0.2,0.6-0.3,1.2-0.3,1.9c0,9.3,25.1,16.9,56.1,16.9c31,0,56.1-7.5,56.1-16.9
				c0-0.6-0.1-1.2-0.3-1.9H782.2z"/>
		</g>
		<g>
			<path class="st3" d="M875.4,294.6h-34.8c-10,0-18.1-8.1-18.1-18.1v-4.7h34.6c10.1,0,18.3,8.2,18.3,18.3V294.6z"/>
		</g>
		<g>
			
				<ellipse transform="matrix(0.7858 -0.6185 0.6185 0.7858 -23.537 610.7156)" class="st0" cx="869.9" cy="339.3" rx="7.7" ry="13.6"/>
		</g>
		<g>
			<path class="st3" d="M875.4,337.5L875.4,337.5c-7.8,0-14.1-6.3-14.1-14.1l-4.3-34h18.4V337.5z"/>
		</g>
		<g>
			<path class="st3" d="M869.9,212.1h-22.7c-13.6,0-24.7,11.1-24.7,24.7v35.9h47.4V212.1z"/>
		</g>
		<g>
			<path class="st5" d="M852.5,275.4h-1.6c-7.4,0-13.4-8.1-13.4-18.1v-3.8v-0.9v-35c0-1.1,0.1-2.3,0.2-3.4
				c-9.2,1.3-16.3,11.8-16.3,24.5v35v0.9v3.8c0,10,6,18.1,13.4,18.1h23.2v-4.5C857.9,284.7,857.2,278.3,852.5,275.4z"/>
		</g>
		<g>
			<path class="st14" d="M838,268.5L838,268.5c-4.3,0-7.7-3.5-7.7-7.7V237h15.5v23.8C845.7,265.1,842.3,268.5,838,268.5z"/>
		</g>
		<g>
			<path class="st0" d="M847.5,247.8h-18.5v-21.7c0-5.1,4.2-9.3,9.3-9.3l0,0c5.1,0,9.3,4.2,9.3,9.3V247.8z"/>
		</g>
		<g>
			<path class="st15" d="M869.1,257.8l-31.9,12.1c-3.8,1.2-6.9-0.9-6.9-4.7v0c0-3.8,3.1-7.9,6.9-9.2l31.9-8.6
				c3.8-0.9,6.9,0.6,6.9,3.5v-0.5C876,254.2,872.9,256.9,869.1,257.8z"/>
		</g>
		<g>
			<path class="st3" d="M927.2,237.3l-37.4,1l-13.4,32.1l-31.5-1.8v0c0,2.7,2.2,5,4.8,5.1l58.2,3.3c2.5,0.1,4.5-1.6,4.8-4
				L927.2,237.3z"/>
		</g>
		<g>
			<circle class="st11" cx="871.9" cy="252.4" r="6.6"/>
		</g>
		<g>
			<path class="st11" d="M906.9,275.1h-58.2c-2.7,0-4.8-2.2-4.8-4.8v0h67.9v0C911.8,272.9,909.6,275.1,906.9,275.1z"/>
		</g>
		<g>
			
				<ellipse transform="matrix(0.8024 -0.5969 0.5969 0.8024 19.9845 573.4247)" class="st14" cx="875.8" cy="256.5" rx="5.5" ry="10.2"/>
		</g>
		<g>
			<rect x="843.9" y="269.4" class="st12" width="58.2" height="1.7"/>
		</g>
		<g>
			<polygon class="st12" points="925.4,237.3 888.8,237.3 875,271.1 911.6,271.1 			"/>
		</g>
		<g>
			
				<ellipse transform="matrix(0.757 -0.6534 0.6534 0.757 52.7203 652.4875)" class="st11" cx="903.7" cy="255.4" rx="3.8" ry="2.9"/>
		</g>
		<g>
			<circle class="st16" cx="857.1" cy="211.1" r="8.4"/>
		</g>
		<g>
			<circle class="st16" cx="884.4" cy="210.1" r="8.4"/>
		</g>
		<g>
			<path class="st3" d="M882.8,208.9c-0.6-7-6.5-12.5-13.6-12.5c-7.6,0-13.7,6.1-13.7,13.7v12.6c0,7.6,6.1,13.7,13.7,13.7
				c2.1,0,4.1-0.5,5.9-1.3c4.6-1.1,8.3-5.2,8.7-10.1l0.8-9.6C884.7,212.9,884.1,210.6,882.8,208.9z"/>
		</g>
		<g>
			<path class="st14" d="M869,235.2L869,235.2c-7.6,0-13.7-6.1-13.7-13.7v-12.6c0-7.6,6.1-13.7,13.7-13.7h0
				c7.6,0,13.7,6.1,13.7,13.7v12.6C882.7,229.1,876.5,235.2,869,235.2z"/>
		</g>
		<g>
			<path class="st15" d="M872.3,234.2L872.3,234.2c-5.8,0-10-4.7-9.6-10.4l0.8-9.6c0.5-5.8,5.5-10.4,11.3-10.4h0
				c5.8,0,10,4.7,9.6,10.4l-0.8,9.6C883.1,229.5,878,234.2,872.3,234.2z"/>
		</g>
		<g>
			<path class="st3" d="M886.2,210.1c-1.8,0-4.1,2.5-5.1,5.7h-1.6c1-3.1,0.3-5.7-1.5-5.7s-4.1,2.5-5.1,5.7c-1,3.1-0.3,5.7,1.5,5.7
				c1.5,0,3.3-1.7,4.4-4h1.8c-0.3,2.3,0.4,4,1.9,4c1.8,0,4.1-2.5,5.1-5.7C888.7,212.6,888,210.1,886.2,210.1z"/>
		</g>
		<g>
			<circle class="st12" cx="855.4" cy="203.7" r="8.4"/>
		</g>
		<g>
			<circle class="st12" cx="861.6" cy="209" r="8.4"/>
		</g>
		<g>
			<circle class="st12" cx="873" cy="203.6" r="8.4"/>
		</g>
		<g>
			<circle class="st12" cx="861.6" cy="196.2" r="8.4"/>
		</g>
		<g>
			<circle class="st12" cx="883.4" cy="199.8" r="8.4"/>
		</g>
		<g>
			<path class="st3" d="M889.2,193.7c1.1,1.4,1.8,3.2,1.8,5.1c0,4.7-3.8,8.4-8.4,8.4c-1.1,0-2.1-0.2-3-0.6c-1.4,2.6-4.2,4.4-7.4,4.4
				c-1.2,0-2.3-0.2-3.3-0.7c-1,3.5-4.3,6.1-8.1,6.1c-1.9,0-3.7-0.7-5.1-1.8c1.5,2,4,3.3,6.7,3.3c3.8,0,7.1-2.6,8.1-6.1
				c1,0.4,2.1,0.7,3.3,0.7c3.2,0,6-1.8,7.4-4.4c0.9,0.4,2,0.6,3,0.6c4.7,0,8.4-3.8,8.4-8.4C892.5,197.7,891.2,195.2,889.2,193.7z"/>
		</g>
		<g>
			<circle class="st12" cx="873" cy="194.2" r="8.4"/>
		</g>
	</g>
</g>
<g id="Books_1">
	<g>
		<rect x="69.6" y="574.8" class="st3" width="197.1" height="24.9"/>
		<rect x="62.3" y="597" class="st0" width="211.8" height="9.1"/>
		<rect x="62.3" y="567.4" class="st0" width="211.8" height="9.1"/>
		<rect x="69.6" y="578.9" class="st17" width="197.1" height="1.2"/>
		<rect x="69.6" y="582.5" class="st17" width="197.1" height="1.2"/>
		<rect x="69.6" y="586.2" class="st17" width="197.1" height="1.2"/>
		<rect x="69.6" y="589.8" class="st17" width="197.1" height="1.2"/>
		<rect x="69.6" y="593.5" class="st17" width="197.1" height="1.2"/>
	</g>
	<g>
		<rect x="69.6" y="498.2" class="st3" width="197.1" height="24.9"/>
		<rect x="62.3" y="520.4" class="st0" width="211.8" height="9.1"/>
		<rect x="62.3" y="490.8" class="st0" width="211.8" height="9.1"/>
		<rect x="69.6" y="502.3" class="st17" width="197.1" height="1.2"/>
		<rect x="69.6" y="505.9" class="st17" width="197.1" height="1.2"/>
		<rect x="69.6" y="509.5" class="st17" width="197.1" height="1.2"/>
		<rect x="69.6" y="513.2" class="st17" width="197.1" height="1.2"/>
		<rect x="69.6" y="516.8" class="st17" width="197.1" height="1.2"/>
	</g>
	<g>
		<rect x="48.8" y="536.8" class="st3" width="197.1" height="24.9"/>
		<rect x="41.4" y="559" class="st2" width="211.8" height="9.1"/>
		<rect x="41.4" y="529.4" class="st2" width="211.8" height="9.1"/>
		<rect x="48.8" y="540.9" class="st17" width="197.1" height="1.2"/>
		<rect x="48.8" y="544.6" class="st17" width="197.1" height="1.2"/>
		<rect x="48.8" y="548.2" class="st17" width="197.1" height="1.2"/>
		<rect x="48.8" y="551.8" class="st17" width="197.1" height="1.2"/>
		<rect x="48.8" y="555.5" class="st17" width="197.1" height="1.2"/>
	</g>
</g>
<g id="Machine">
	<path class="st11" d="M712.9,606.1c0-0.3,0-0.6,0-0.9c0-133.8-108.4-242.2-242.2-242.2v243.1H712.9z"/>
	<path class="st18" d="M745.2,607c0-0.2,0-0.4,0-0.6c0-90.1-73-163.1-163.1-163.1V607H745.2z"/>
	<path class="st19" d="M696.8,607c0-0.3,0-0.6,0-0.9C696.8,479,593.7,376,466.6,376V607H696.8z"/>
	<g>
		<path class="st20" d="M707.1,487.6v-21.6H690c-1.5-8.4-4.8-16.1-9.5-22.8l12.1-12.1l-15.3-15.3l-12.1,12.1
			c-6.7-4.6-14.5-7.9-22.8-9.5v-17.1h-21.6v17.1c-8.4,1.5-16.1,4.8-22.8,9.5l-12.1-12.1L570.5,431l12.1,12.1
			c-4.6,6.7-7.9,14.5-9.5,22.8H556v21.6h17.1c1.5,8.4,4.8,16.1,9.5,22.8l-12.1,12.1l15.3,15.3l12.1-12.1c6.7,4.6,14.5,7.9,22.8,9.5
			v17.1h21.6v-17.1c8.4-1.5,16.1-4.8,22.8-9.5l12.1,12.1l15.3-15.3l-12.1-12.1c4.6-6.7,7.9-14.5,9.5-22.8H707.1z M631.6,508.9
			c-17.7,0-32.1-14.4-32.1-32.1c0-17.7,14.4-32.1,32.1-32.1s32.1,14.4,32.1,32.1C663.7,494.5,649.3,508.9,631.6,508.9z"/>
		<circle class="st20" cx="631.6" cy="476.7" r="21.8"/>
	</g>
	<g>
		<path class="st20" d="M581.7,554.4v-15.8h-12.5c-1.1-6.1-3.5-11.7-6.9-16.6l8.8-8.8L560,502.1l-8.8,8.8
			c-4.9-3.4-10.5-5.8-16.6-6.9v-12.5h-15.8V504c-6.1,1.1-11.7,3.5-16.6,6.9l-8.8-8.8l-11.1,11.1l8.8,8.8c-3.4,4.9-5.8,10.5-6.9,16.6
			h-12.5v15.8h12.5c1.1,6.1,3.5,11.7,6.9,16.6l-8.8,8.8l11.1,11.1l8.8-8.8c4.9,3.4,10.5,5.8,16.6,6.9v12.5h15.8v-12.5
			c6.1-1.1,11.7-3.5,16.6-6.9l8.8,8.8l11.1-11.1l-8.8-8.8c3.4-4.9,5.8-10.5,6.9-16.6H581.7z M526.6,569.9
			c-12.9,0-23.4-10.5-23.4-23.4c0-12.9,10.5-23.4,23.4-23.4c12.9,0,23.4,10.5,23.4,23.4C550,559.5,539.6,569.9,526.6,569.9z"/>
		<circle class="st20" cx="526.6" cy="546.5" r="15.9"/>
	</g>
	<g>
		<path class="st3" d="M620.1,560.7v-5h-4c-0.4-1.9-1.1-3.7-2.2-5.3l2.8-2.8l-3.6-3.6l-2.8,2.8c-1.6-1.1-3.4-1.8-5.3-2.2v-4h-5v4
			c-1.9,0.4-3.7,1.1-5.3,2.2L592,544l-3.6,3.6l2.8,2.8c-1.1,1.6-1.8,3.4-2.2,5.3h-4v5h4c0.4,1.9,1.1,3.7,2.2,5.3l-2.8,2.8l3.6,3.6
			l2.8-2.8c1.6,1.1,3.4,1.8,5.3,2.2v4h5v-4c1.9-0.4,3.7-1.1,5.3-2.2l2.8,2.8l3.6-3.6L614,566c1.1-1.6,1.8-3.4,2.2-5.3H620.1z
			 M602.6,565.6c-4.1,0-7.5-3.3-7.5-7.5s3.3-7.5,7.5-7.5c4.1,0,7.5,3.3,7.5,7.5S606.7,565.6,602.6,565.6z"/>
		<circle class="st3" cx="602.6" cy="558.2" r="5.1"/>
	</g>
	<g>
		<path class="st3" d="M556,456.8v-9.3h-7.3c-0.7-3.6-2.1-6.9-4.1-9.8l5.2-5.2l-6.5-6.5l-5.2,5.2c-2.9-2-6.2-3.4-9.8-4.1v-7.3h-9.3
			v7.3c-3.6,0.7-6.9,2.1-9.8,4.1l-5.2-5.2l-6.5,6.5l5.2,5.2c-2,2.9-3.4,6.2-4.1,9.8h-7.3v9.3h7.3c0.7,3.6,2.1,6.9,4.1,9.8l-5.2,5.2
			l6.5,6.5l5.2-5.2c2.9,2,6.2,3.4,9.8,4.1v7.3h9.3v-7.3c3.6-0.7,6.9-2.1,9.8-4.1l5.2,5.2l6.5-6.5l-5.2-5.2c2-2.9,3.4-6.2,4.1-9.8
			H556z M523.7,465.9c-7.6,0-13.8-6.2-13.8-13.8c0-7.6,6.2-13.8,13.8-13.8s13.8,6.2,13.8,13.8C537.4,459.8,531.3,465.9,523.7,465.9z
			"/>
		<circle class="st3" cx="523.7" cy="452.2" r="9.3"/>
	</g>
	<path class="st20" d="M676.6,561.2c-25.3,0-45.8,20.5-45.8,45.8h91.7C722.5,581.7,701.9,561.2,676.6,561.2z"/>
	
		<ellipse transform="matrix(0.5631 -0.8264 0.8264 0.5631 -113.1099 571.8577)" class="st3" cx="484.3" cy="392.9" rx="3.9" ry="9.2"/>
	
		<ellipse transform="matrix(0.5631 -0.8264 0.8264 0.5631 -121.5763 577.3219)" class="st3" cx="485.2" cy="403.6" rx="2.2" ry="4.9"/>
	<ellipse transform="matrix(0.5631 -0.8264 0.8264 0.5631 -94.2606 671.7971)" class="st3" cx="588.2" cy="425" rx="2.2" ry="4.9"/>
	
		<ellipse transform="matrix(0.9987 -5.180102e-02 5.180102e-02 0.9987 -24.9637 28.2193)" class="st3" cx="531.9" cy="495.7" rx="1" ry="2.4"/>
	<ellipse transform="matrix(0.727 -0.6866 0.6866 0.727 -212.8775 477.7224)" class="st3" cx="494.4" cy="506.6" rx="1" ry="2.4"/>
	
		<ellipse transform="matrix(0.7679 -0.6406 0.6406 0.7679 -194.0719 476.9472)" class="st3" cx="561.1" cy="506.3" rx="1" ry="2.4"/>
	
		<ellipse transform="matrix(0.9997 -2.534449e-02 2.534449e-02 0.9997 -10.1707 16.2741)" class="st3" cx="636.9" cy="409.4" rx="2.2" ry="4.9"/>
	<ellipse transform="matrix(0.689 -0.7248 0.7248 0.689 -97.9875 628.9075)" class="st3" cx="683.8" cy="428.6" rx="2.2" ry="4.9"/>
	
		<ellipse transform="matrix(0.9997 -2.534449e-02 2.534449e-02 0.9997 -11.9095 17.9573)" class="st3" cx="702.5" cy="478.8" rx="2.6" ry="6"/>
	
		<ellipse transform="matrix(0.6903 -0.7236 0.7236 0.6903 -218.4512 652.8746)" class="st19" cx="653.4" cy="581.6" rx="17.1" ry="5.9"/>
	<ellipse transform="matrix(0.5198 -0.8543 0.8543 0.5198 -154.0798 871.062)" class="st3" cx="697.8" cy="572.6" rx="2" ry="5.7"/>
	
		<ellipse transform="matrix(0.5916 -0.8062 0.8062 0.5916 -180.7735 803.3036)" class="st3" cx="702.6" cy="580.1" rx="3.4" ry="9.7"/>
</g>
<g id="Bulb">
	<g class="st21">
		<circle class="st12" cx="408.4" cy="185" r="98.3"/>
	</g>
	<g>
		<path class="st3" d="M405.1,113.8c-35.3,1.7-64.1,31.2-66.2,67.8c-1.1,19.8,5.5,38,16.9,51.7c10.6,12.7,17.9,27.8,20.9,44H440
			c2.9-16.1,10-31.2,20.6-43.7c10.8-12.7,17.4-29.4,17.4-47.7C478,144.9,445,111.9,405.1,113.8z"/>
	</g>
	<g>
		<path class="st20" d="M435.4,279.9h-54.1v18.2c0,14.9,12.1,27,27,27h0c14.9,0,27-12.1,27-27V279.9z"/>
	</g>
	<g>
		<path class="st12" d="M471.9,184.8c0-36.1-30.1-65.2-66.5-63.5c-32.2,1.5-58.6,27.4-60.4,59.7c-1,17.4,5,33.4,15.5,45.5
			c13,14.9,20.5,33.8,20.5,53.6v0h54.9v0c0-19.6,7.3-38.5,20.2-53.2C465.9,215.6,471.9,200.9,471.9,184.8z"/>
	</g>
	<g>
		<path class="st22" d="M451.8,193.3c0-24.6-20.5-44.5-45.4-43.3c-22,1-40,18.7-41.3,40.7c-0.7,11.9,3.4,22.8,10.6,31.1
			c8.9,10.2,14,40.9,14,54.4v0h37.5v0c0-13.4,5-44.2,13.8-54.2C447.7,214.3,451.8,204.3,451.8,193.3z"/>
	</g>
	<g>
		<path class="st11" d="M416.5,281.6h-16.6c-0.9,0-1.7-0.8-1.7-1.7v-41.3l-7.4-21.3c-0.3-0.8,0-1.6,0.7-2c0.7-0.4,1.6-0.3,2.1,0.2
			l3.6,3.6l4.7-4.7c0.7-0.7,1.8-0.7,2.4,0l4.6,4.6l4.5-4.5c0.6-0.6,1.8-0.6,2.4,0l4.7,4.7l4.6-4.6c0.6-0.6,1.4-0.7,2.1-0.2
			c0.7,0.4,1,1.3,0.7,2l-7.7,22.2l-2,41.3C418.2,280.9,417.4,281.6,416.5,281.6z M401.7,278.2h13.2l2-39.9c0-0.2,0-0.3,0.1-0.5
			l5.4-15.4l-0.5,0.5c-0.7,0.7-1.8,0.7-2.4,0l-4.7-4.7l-4.5,4.5c-0.6,0.6-1.8,0.6-2.4,0l-4.6-4.6l-4.7,4.7c-0.5,0.5-1.3,0.6-2,0.3
			l5.1,14.7c0.1,0.2,0.1,0.4,0.1,0.6V278.2z"/>
	</g>
	<g>
		<path class="st19" d="M432.6,284.4h-48.5c-4.5,0-8.2-3.7-8.2-8.2v0h65v0C440.9,280.7,437.2,284.4,432.6,284.4z"/>
	</g>
	<g>
		<path class="st19" d="M438,294.1h-59.1c-1.6,0-2.9-1.3-2.9-2.9l0,0c0-1.6,1.3-2.9,2.9-2.9H438c1.6,0,2.9,1.3,2.9,2.9l0,0
			C440.9,292.8,439.6,294.1,438,294.1z"/>
	</g>
	<g>
		<path class="st19" d="M438,304.9h-59.1c-1.6,0-2.9-1.3-2.9-2.9l0,0c0-1.6,1.3-2.9,2.9-2.9H438c1.6,0,2.9,1.3,2.9,2.9l0,0
			C440.9,303.6,439.6,304.9,438,304.9z"/>
	</g>
	<g>
		<path class="st19" d="M438,315.7h-59.1c-1.6,0-2.9-1.3-2.9-2.9l0,0c0-1.6,1.3-2.9,2.9-2.9H438c1.6,0,2.9,1.3,2.9,2.9l0,0
			C440.9,314.4,439.6,315.7,438,315.7z"/>
	</g>
	<g>
		<path class="st3" d="M357.6,207.8c-1.3,0-2.5-0.9-2.8-2.2c-1.3-5.4-2-10.7-2.1-15.8c0-1.6,1.2-2.9,2.8-2.9c1.5,0,2.9,1.2,2.9,2.8
			c0.1,4.7,0.8,9.6,2,14.6c0.4,1.5-0.6,3.1-2.1,3.4C358.1,207.8,357.8,207.8,357.6,207.8z"/>
	</g>
	<g>
		<path class="st3" d="M356,183.2c-0.1,0-0.2,0-0.3,0c-1.6-0.2-2.7-1.6-2.5-3.2c4-32.6,31.3-46.3,32.5-46.8c1.4-0.7,3.1-0.1,3.8,1.3
			c0.7,1.4,0.1,3.1-1.3,3.8c-0.3,0.2-25.7,13-29.3,42.4C358.6,182.2,357.4,183.2,356,183.2z"/>
	</g>
	<g>
		<path class="st12" d="M408.4,102.3c-1.6,0-2.9-1.3-2.9-2.9V69.8c0-1.6,1.3-2.9,2.9-2.9c1.6,0,2.9,1.3,2.9,2.9v29.6
			C411.2,101,410,102.3,408.4,102.3z"/>
	</g>
	<g>
		<path class="st12" d="M468.9,127.4c-0.7,0-1.5-0.3-2-0.8c-1.1-1.1-1.1-2.9,0-4l21-21c1.1-1.1,2.9-1.1,4,0c1.1,1.1,1.1,2.9,0,4
			l-21,21C470.4,127.1,469.6,127.4,468.9,127.4z"/>
	</g>
	<g>
		<path class="st12" d="M523.6,187.9H494c-1.6,0-2.9-1.3-2.9-2.9s1.3-2.9,2.9-2.9h29.6c1.6,0,2.9,1.3,2.9,2.9
			S525.2,187.9,523.6,187.9z"/>
	</g>
	<g>
		<path class="st12" d="M489.9,269.3c-0.7,0-1.5-0.3-2-0.8l-21-21c-1.1-1.1-1.1-2.9,0-4c1.1-1.1,2.9-1.1,4,0l21,21
			c1.1,1.1,1.1,2.9,0,4C491.3,269.1,490.6,269.3,489.9,269.3z"/>
	</g>
	<g>
		<path class="st12" d="M326.9,269.3c-0.7,0-1.5-0.3-2-0.8c-1.1-1.1-1.1-2.9,0-4l21-21c1.1-1.1,2.9-1.1,4,0c1.1,1.1,1.1,2.9,0,4
			l-21,21C328.4,269.1,327.6,269.3,326.9,269.3z"/>
	</g>
	<g>
		<path class="st12" d="M322.8,187.9h-29.6c-1.6,0-2.9-1.3-2.9-2.9s1.3-2.9,2.9-2.9h29.6c1.6,0,2.9,1.3,2.9,2.9
			S324.4,187.9,322.8,187.9z"/>
	</g>
	<g>
		<path class="st12" d="M347.9,127.4c-0.7,0-1.5-0.3-2-0.8l-21-21c-1.1-1.1-1.1-2.9,0-4c1.1-1.1,2.9-1.1,4,0l21,21
			c1.1,1.1,1.1,2.9,0,4C349.3,127.1,348.6,127.4,347.9,127.4z"/>
	</g>
</g>
<g id="Brain">
	<g>
		<path class="st9" d="M465.4,548.9c-4.7-11-9-21.4-11.1-33.3c-2.1-12.2-1.2-24.5-2.7-36.7c-1.6-13.5-2-27.4-1.4-41
			c0.7-14,4.6-26.6,8.2-40c1.7-6.4,2.8-12.9,3.9-19.4c0.8-4.6,2.3-9.9,1-14.5c-3.2-11.8-18.9-10.1-28.1-9.8c-1.5,0-2.9,1.4-2.9,2.8
			c-1.9-0.4-4-0.5-5.5-0.5c-6.2-0.1-12.9,0.4-18.9,1.8c-2.8,0.7-5.7,1.6-8.3,3c-0.3-0.4-0.8-0.7-1.3-0.8c-5.2-1.7-12.4,1.5-17.2,3.1
			c-5.1,1.7-11.9,3.9-15.7,8c-10.9-2.2-25.7,1.9-33.5,5.4c-1.7,0.8-3.3,2-4.6,3.3c-9-0.5-18.5,3.1-26.3,7
			c-9.4,4.7-16.6,11.7-22,20.7c-2.3,3.7-3.8,9.5-7.7,11.4c-4.8,2.4-10,3.4-14.7,6.3c-8.2,5.1-11.1,12.8-11.4,22.2
			c-0.1,4.6,0.7,9.1,2.1,13.2c-0.7,0-1.3,0.2-1.9,0.8c-11.4,10.9-18.5,32.1-10.8,46.8c-4.4,0.9-8.9,4.1-12.2,6.5
			c-13.8,10.1-21.2,29.9-18.8,46.7c1.4,9.8,6.8,14.6,16.2,16.6c9.3,1.9,18.3,1.7,27.6,1.7c0.3,4.5,1.6,8.7,4,12
			c6.6,9.1,20.7,8,30.6,8.4c16,0.6,32.4,2,48.2-2c6.3-1.6,13.2-4.1,18.2-8.3c0.8-0.6,1.4-1.3,1.9-2c0.9,2.3,2.5,4.3,5.2,6
			c5.8,3.6,13,4.6,19.7,5.4c16.2,2,36.4,2.9,51.2-5c0.9-0.5,1.3-1.3,1.4-2.1c8.5,6.3,18.9,10,27.4,6.1
			C474.4,590.1,472.1,564.9,465.4,548.9z"/>
		<path class="st0" d="M310.7,511.4c0,0-0.6,7,11.3,7.4c11.9,0.4,25.2,2.1,22.9,7.2c-2.3,5.1,0,6.4,0,6.4l7.6-8.1l-4.9-10.3
			l-16.6-2.7l-12-4.1L307.4,492C307.4,492,295.3,491.4,310.7,511.4z"/>
		<path class="st0" d="M455.4,404.8h1.1c0.6-2.3,1.3-4.6,1.9-6.9c1.1-4,1.9-8.1,2.6-12.2c-5-3.6-13.2-8.5-26.7-14.5
			c-32.7-14.6-63,15.8-73.1,11.6c-10.1-4.3-22.6,5.1-22.6,5.1l15,4.7l7.2,5l2.8,12.1l4.9,4.1l2-4.7l7.3-18.1l17.1-11.5
			c0,0,27.7-1.9,28.5-1.9c0.8,0,21.6,7.2,21.6,7.2L455.4,404.8z"/>
		<path class="st0" d="M420.8,583.4c0,0-10.9,16.6-33.9,2.9c-23.1-13.7-16.9-15.6-21.5-20.9c-4.6-5.2-3.5,12.4-16.4,8
			c-12.9-4.4-9.3,1.8-9.3,1.8l-22.8-7l-10.9-11.8l-25.3-1.8l-20.9-9.4l-4.4-19.2l1.7-3.2l-22.6-15.3c0.3,0.8,0.7,1.5,1,2.3
			c-4.4,0.9-8.9,4.1-12.2,6.5c-0.3,0.2-0.6,0.5-0.9,0.7c8.3,3,22.5,9.3,21.4,16.7c-1.6,10.4,13.6,28.9-6.5,36.8
			c-9.5,3.7-16.6,6.1-21.6,7.7c1.5,0.6,3.1,1.1,4.9,1.4c9.3,1.9,18.3,1.7,27.6,1.7c0,0.1,0,0.1,0,0.2l7.1-14c0,0,15.8-15.1,38-1.4
			c22.2,13.7,44.5,11.5,48.8,18.9c1.1,1.8,3.3,4.3,6.2,6.9c0.3-0.2,0.6-0.4,0.8-0.6c0.8-0.6,1.4-1.3,1.9-2c0.9,2.3,2.5,4.3,5.2,6
			c5.8,3.6,13,4.6,19.7,5.4c16.2,2,36.4,2.9,51.2-5c0.9-0.5,1.3-1.3,1.4-2.1c1.4,1.1,2.9,2.1,4.5,2.9L420.8,583.4z"/>
		<path class="st0" d="M287.9,456.3l12.2-4.8l8.5,4.8l-1.2-8.1c0,0-6-7.7-29.3,2.9s-31.4-4.8-31.4-4.8l-1.5,1.4c0,0.1,0,0.2,0,0.3
			c-0.1,4.6,0.7,9.1,2.1,13.2c-0.7,0-1.3,0.2-1.9,0.8c-1.1,1.1-2.2,2.2-3.2,3.5c4.2,9.9,11.6,23.3,22.4,26.4
			c17.6,4.9,31.8,17.1,31.8,17.1l-11.1-15.8l-11.9-15.3l0.6-8.2L287.9,456.3z"/>
		<path class="st0" d="M332.4,432.8c0,0-21.6,19.1-7,44.9c14.6,25.7,37.3,27.6,36.8,21.6c-0.4-6-17.4-9.6-17.4-9.6L331,474.8
			l-1.4-16.1l5-21.6l2.2-3.4L332.4,432.8z"/>
		<path class="st0" d="M443.5,508.9l-17.9-1.7l-23.9-9.1l-15.2-27.6l-4.5-24.4l15.7-32.7c0,0-12,1.4-13.9,8.4
			c-1.8,7-12.6-8.4-12.6-8.4l-19.9-8.6l20.7,27.3c0,0,5.4,22.3-2.3,26.4c-7.8,4.1,3.8,40.3,30.1,52.8l-19.3,16.7l-27.8,6.2
			l-15.2,3.3v2.2c0,0,10.5-3,32.7,2.1c22.2,5.1,21.5-22.4,44.1-22.8c22.6-0.4,49.8,34.2,39.9,64.4c-9.9,30.3-39.9-10.7-39.9-10.7
			l12.9,21.2c0.3-0.4,0.4-0.8,0.4-1.3c8.5,6.3,18.9,10,27.4,6.1c19.4-8.7,17.1-33.8,10.3-49.8c-4.7-11-9-21.4-11.1-33.3
			c-0.6-3.6-1-7.1-1.2-10.7l-4.8,0.9L443.5,508.9z"/>
		<g>
			<path class="st11" d="M389.9,375.4c4.4-0.9,6.7-5.3,10-8c5-4.2,12.1-5,18.4-5.5c4.2-0.4,8.5-0.6,12.7-0.2c2.4,0.2,1-0.1,0.6,0.1
				c-2.5,1.2-4.9,1.5-7.6,1.5c-3.1,0.1-5.3-0.2-8.2,1c-2.7,1.1-1.2,5.4,1.4,5.3c8.6-0.2,17.2-0.4,25.8-0.2c3.7,0.1,3.7-5.6,0-5.7
				c-8.6-0.2-17.2,0-25.8,0.2c0.5,1.8,1,3.6,1.4,5.3c2.1-0.9,5-0.1,7.2-0.3c2.1-0.1,4.3-0.5,6.3-1.2c2.8-1,5.8-3,6-6.2
				c0.3-5.4-6.9-5.7-10.8-5.8c-6.3-0.1-13.1,0.4-19.2,1.8c-4.3,1-8.7,2.7-12.1,5.6c-2.3,2-4.5,6-7.6,6.7
				C384.8,370.6,386.3,376.1,389.9,375.4L389.9,375.4z"/>
		</g>
		<g>
			<path class="st11" d="M409.3,569.5c2.9,2.8,3.6,8.1,6,11.5c2.9,4.1,6.3,7.9,10.1,11.1c6.9,5.7,16.9,11.6,26.2,10.1
				c9.2-1.4,15.6-10,18.4-18.3c3.4-10.4,1.3-21.3-2.7-31.3c-4.6-11.3-9.5-21.7-11.7-33.8c-2.5-13.3-1.6-26.8-3.2-40.2
				c-3.2-25.9-2.1-52.3,5.9-77.2c2.1-6.6,3.4-13.5,4.6-20.3c0.9-5.2,2.7-11.1,1.8-16.4c-2.2-13.2-18.9-11.7-28.8-11.4
				c-3.7,0.1-3.7,5.8,0,5.7c5.7-0.2,12.3-1.2,17.8,1c7.5,3,5.2,10.1,4.2,16.5c-1.7,10.4-4.3,20.1-7.3,30.2
				c-6.1,20.1-6.2,42.1-4.8,62.9c0.7,10.8,1.7,21.6,2.2,32.4c0.5,10.1,2,20.5,5,30.2c5.5,18.3,22.2,39.8,7.3,58.2
				c-9.1,11.2-23.2,4.3-32-3.5c-3.6-3.2-7.3-7.1-9.6-11.4c-1.8-3.5-2.3-7.3-5.2-10.1C410.6,563,406.6,567,409.3,569.5L409.3,569.5z"
				/>
		</g>
		<g>
			<path class="st11" d="M394.4,415.7c-8.4,11.8-13.8,23-13.4,37.8c0.4,13.4,4.5,26.7,12.5,37.5c7.3,9.8,18.3,15.7,30.1,18.6
				c8.2,2,27.3,6.3,28.2-6.7c0.3-3.7-5.5-3.7-5.7,0c-0.6,9-31.1-2-34.8-4c-8.2-4.4-14-11.1-18.1-19.4c-4.8-9.5-6.9-20.3-6.4-30.9
				c0.5-11.8,5.9-20.8,12.6-30.1C401.4,415.6,396.5,412.8,394.4,415.7L394.4,415.7z"/>
		</g>
		<g>
			<path class="st11" d="M301.2,493.1c7,3.2,10.7,8.2,15,14.3c2.8,3.9,5.1,6.4,10,7.1c6.1,0.8,12.8,0.5,18.4,3.6
				c8.4,4.6-2.4,14.3-7.5,17c1,1.6,1.9,3.3,2.9,4.9c12.1-8.3,27,0.3,39-7.3c12.2-7.6,22.3-19.7,36.1-24.5c3.5-1.2,2-6.7-1.5-5.5
				c-13.6,4.7-24.4,15.8-35.9,24c-7,5-14.3,3.2-22.3,3.3c-6.7,0.1-12.7,1.2-18.3,5.1c-3,2.1-0.4,6.7,2.9,4.9
				c5.6-3.1,12.6-9.6,13.8-16.3c1.1-6.1-4-9.9-9.1-11.9c-3.7-1.4-7.8-2.2-11.8-2.7c-5.1-0.6-8.3,0-11.7-4.7
				c-4.9-6.8-9.2-12.7-17.1-16.4C300.7,486.6,297.8,491.5,301.2,493.1L301.2,493.1z"/>
		</g>
		<g>
			<path class="st11" d="M333.7,433.6c-4.7,5.4-6.1,13-6.4,19.9c-0.3,7.4-0.4,15.1,1.7,22.2c1.8,6.1,7,10.8,11.7,14.7
				c2.1,1.7,4.4,3.5,6.7,4.9c3.5,2.1,7.7,3.1,11,5.3c3.1,2,6-2.9,2.9-4.9c-4.7-3.1-10-4.4-14.5-8c-4.3-3.4-8.6-6.4-11.4-11.3
				c-2.9-5.2-2.5-11.8-2.5-17.5c-0.1-6.8,0-15.7,4.8-21.1C340.1,434.9,336.1,430.8,333.7,433.6L333.7,433.6z"/>
		</g>
		<g>
			<path class="st11" d="M362.3,461.9c7.7,3.2,14.6-5.4,19-10.3c5.2-5.9,8.7-14.4,10.9-21.9c1-3.5-4.5-5.1-5.5-1.5
				c-1.5,5.4-4.1,11.7-7.1,16.5c-2.4,3.9-10.4,14-15.7,11.7C360.4,455,358.9,460.5,362.3,461.9L362.3,461.9z"/>
		</g>
		<g>
			<path class="st11" d="M314.4,466.7c-0.2-9.7-5.2-17.2-15.4-18.4c-9.6-1.2-21.5,8.7-26,16.6c-5.7,10.1-1.2,18.8,6.3,26.2
				c8.9,8.8,27.3,24.8,12.8,36.9c-2.8,2.4,1.2,6.4,4,4c6.6-5.5,8.5-13.2,5.7-21.3c-3.1-9.2-10.3-15.6-17.1-22.2
				c-4.1-4-9-8.1-8.7-14.4c0.3-5.8,4.2-10,8.4-13.5c4.6-3.9,10.1-7.7,16.4-5.9c6,1.7,7.7,6.3,7.8,12
				C308.8,470.4,314.5,470.4,314.4,466.7L314.4,466.7z"/>
		</g>
		<g>
			<path class="st11" d="M310.1,539.7c-0.1,1.1-3.3,3.4-4,4.3c-1.2,1.4-2.3,2.9-3,4.7c-1,2.6-1.3,5.7-0.9,8.4
				c0.8,5.9,7.7,10.4,12.6,12.9c6.6,3.4,14,5.8,21.4,6.8c6.8,0.9,15.9,2.1,22.3-1.3c3.3-1.7,0.4-6.7-2.9-4.9
				c-4.7,2.5-13.3,1.3-18.5,0.6c-6.2-0.8-12-2.9-17.7-5.3c-5.8-2.5-12.9-7-11-14.1c1.3-4.9,7.1-6.8,7.5-12
				C316.1,536.1,310.4,536.1,310.1,539.7L310.1,539.7z"/>
		</g>
		<g>
			<path class="st11" d="M362.1,552.9c-1.2,4.5,1,8.8,2.4,13c1.8,5.5,3.9,10.6,8.7,14.2c5,3.8,11.4,5.7,17.3,7.7
				c6.6,2.1,13.1,3.7,20,3.7c3.7,0,3.7-5.7,0-5.7c-9.9-0.1-21.1-3.4-30-7.8c-5.3-2.6-8.1-6.4-10-11.9c-1.1-3.3-3.8-8.3-2.9-11.7
				C368.5,550.8,363,549.3,362.1,552.9L362.1,552.9z"/>
		</g>
		<g>
			<path class="st11" d="M260.7,511.4c-0.2,2.6-5.9,6.7-7.2,9.3c-1.3,2.7-1.9,5.7-1.9,8.6c0.1,6.5,2.8,13.4,7.4,18
				c5.2,5.1,12.5,6.7,19.3,8.5c8,2.2,15.9,5.4,24.3,3.5c3.6-0.8,2.1-6.3-1.5-5.5c-7.1,1.6-14.4-1.7-21.2-3.5
				c-6-1.6-12.8-2.9-17.3-7.6c-4.2-4.5-6.5-12.4-4.5-18.2c1.8-5.4,8-7.2,8.4-13.2C266.6,507.7,260.9,507.7,260.7,511.4L260.7,511.4z
				"/>
		</g>
		<g>
			<path class="st11" d="M302.8,559.4c3.7,0,3.7-5.7,0-5.7C299.2,553.7,299.2,559.4,302.8,559.4L302.8,559.4z"/>
		</g>
		<g>
			<path class="st11" d="M329.2,403.7c-7.3,4.4-12.9,13.7-16.2,21.4c-1.7,4.1-3.1,8.3-3.9,12.7c-0.9,4.7-0.3,10.7-3.7,14.6
				c-2.4,2.8,1.6,6.8,4,4c5.6-6.4,4.4-15.7,6.7-23.4c2.5-8.4,8.1-19.6,15.9-24.3C335.2,406.8,332.3,401.8,329.2,403.7L329.2,403.7z"
				/>
		</g>
		<g>
			<path class="st11" d="M301.8,405.3c4.8,6.1,13.5,5,19.9,3.2c9.5-2.6,19.4-5,29.2-2.3c8.6,2.4,15.6,8,20.6,15.5
				c5.2,7.7,4.7,17.4,4,26.4c-0.3,3.7,5.5,3.7,5.7,0c0.6-8.6,1.1-18.1-2.9-26c-3.5-6.9-9.5-13.5-16.1-17.6
				c-7.9-4.9-17.5-5.2-26.5-4.9c-7.9,0.3-23.9,9.4-29.9,1.7C303.5,398.4,299.5,402.4,301.8,405.3L301.8,405.3z"/>
		</g>
		<g>
			<path class="st11" d="M375.7,415.9c-2.5-10.4,0.2-20.6,9.1-26.7c3.3-2.3,7.2-5.5,11-6.9c4.5-1.7,10.9-0.8,15.6-0.9
				c8.1-0.1,17.4,0,24.9,3.1c6.1,2.4,12.3,7.4,14.4,13.6c1.2,3.5,6.7,2,5.5-1.5c-6.8-19.9-31.1-21.1-49-20.8
				c-5.2,0.1-11.1-0.4-15.8,2.2c-4.9,2.7-10.2,6.2-14.4,9.9c-8.1,7.2-9.4,19.5-7,29.6C371,421,376.5,419.5,375.7,415.9L375.7,415.9z
				"/>
		</g>
		<g>
			<path class="st11" d="M363.5,406.3c3.2-5.2,1.8-11-2.9-14.7c-6.4-5.1-15.7-4.5-23.4-5.5c-0.8-0.1-6.7-0.5-6.9-1.5
				c-0.4-1.8,4.8-3.3,5.7-3.7c3.8-1.4,7.8-2.2,11.8-3c8.5-1.6,23.2-4.1,25.3,7.4c0.7,3.6,6.2,2.1,5.5-1.5
				c-3.7-20-34.5-12.9-47.3-7.1c-6.1,2.8-10.7,10.1-2.3,13.5c5.5,2.2,36.8,1.5,29.6,13.3C356.6,406.5,361.5,409.4,363.5,406.3
				L363.5,406.3z"/>
		</g>
		<g>
			<path class="st11" d="M276.8,482c-13.3-3.6-24.9-13.5-27.2-27.5c-0.9-5.7-0.8-12.9,2.2-18c3.7-6.3,12.3-9.1,18.8-11.3
				c4.2-1.4,6-2.8,7.9-6.8c2.6-5.5,5.7-10.9,9.7-15.5c4.8-5.5,10.8-9.3,17.4-12.2c6.8-3,15.5-6.2,23.1-4.8c3.6,0.7,5.1-4.8,1.5-5.5
				c-14.6-2.7-33.4,5.8-43.6,15.9c-5.1,5-9.2,11.3-12.4,17.7c-1.7,3.4-2.9,5-6.7,6.2c-3.7,1.2-7.6,2.8-11,4.7
				c-12.5,6.9-15.3,20.8-12,34c3.6,14.5,16.5,24.8,30.6,28.6C278.8,488.5,280.3,482.9,276.8,482L276.8,482z"/>
		</g>
		<g>
			<path class="st11" d="M368.6,375.7c3.1-3.8,9.4-5.7,13.9-7.3c3.7-1.3,10.4-4.4,14.4-3.2c3.5,1.1,5-4.4,1.5-5.5
				c-5.3-1.7-12.5,1.5-17.4,3.2c-5.4,1.8-12.7,4.2-16.4,8.7C362.3,374.5,366.3,378.6,368.6,375.7L368.6,375.7z"/>
		</g>
		<g>
			<path class="st11" d="M243.8,462.7c-9.6,9.2-15.4,24.3-13.8,37.6c0.8,6.3,3.6,12.2,8.4,16.5c3.7,3.4,9.7,7.1,14.9,7.5
				c3.3,0.2,3.3-4.9,0-5.1c-4-0.3-9.9-4.5-12.5-7.2c-4.4-4.5-6-10.4-5.8-16.6c0.3-10.7,4.8-21.7,12.5-29.1
				C249.9,464,246.2,460.4,243.8,462.7L243.8,462.7z"/>
		</g>
		<g>
			<path class="st11" d="M234.3,508.7c-21,3.8-32.2,26.2-33.7,45.6c-0.7,8.4,0.8,19.4,9.4,23.3c10.6,4.8,24.9,4.7,36.2,3.8
				c3.6-0.3,3.7-6,0-5.7c-9.2,0.7-18.5,0.4-27.6-1.5c-5.3-1.1-9.5-2.7-11.4-8.3c-1.5-4.5-1.2-9.4-0.7-14c2-16.2,11.7-34.5,29.3-37.6
				C239.5,513.5,237.9,508,234.3,508.7L234.3,508.7z"/>
		</g>
		<g>
			<path class="st11" d="M249.5,582.3c3.7,0,3.7-5.7,0-5.7C245.8,576.6,245.8,582.3,249.5,582.3L249.5,582.3z"/>
		</g>
		<g>
			<path class="st11" d="M252.8,560.2c-6.5,8.2-8.2,23.4-2.9,32.7c5,8.9,17,9.4,26,9.7c15.5,0.5,31.2,2.1,46.7-0.2
				c9-1.3,28.5-5.2,30.4-16.3c0.6-3.6-4.9-5.1-5.5-1.5c-0.9,5.4-10.3,8.3-14.6,9.7c-5,1.6-10.2,2.6-15.4,3.1
				c-11.1,1.1-22.2,0.4-33.3-0.1c-7.9-0.3-18.5,0.8-25.5-3.5c-8.4-5.2-7.1-22.6-1.6-29.5C259.1,561.4,255.1,557.3,252.8,560.2
				L252.8,560.2z"/>
		</g>
		<g>
			<path class="st11" d="M348,580.9c0.5,6.5,0.9,11.8,7,15.6c5.9,3.6,13.2,4.7,19.9,5.5c16.4,2,36.8,3,51.8-5.1
				c3.2-1.7,0.4-6.7-2.9-4.9c-12,6.4-27.9,5.9-41.1,5c-5.9-0.4-11.8-1-17.5-2.6c-2.8-0.8-5.9-1.6-8.2-3.5c-3.3-2.7-3-6.2-3.3-10
				C353.4,577.3,347.7,577.3,348,580.9L348,580.9z"/>
		</g>
		<path class="st3" d="M395.8,437.7c0,0-15.2,58.5,42.8,62.2C449.5,500.9,395.1,491.2,395.8,437.7z"/>
		<path class="st3" d="M338.7,441.8c0,0-10.9,33.8,13.8,45.1C352.5,486.9,336.1,469.4,338.7,441.8z"/>
		<path class="st3" d="M222.9,526.1c0,0-19.8,26.3-8.1,40.1C217.4,568.9,209.5,554.9,222.9,526.1z"/>
		<path class="st3" d="M263.5,522.5c0,0-10,25.7,34.2,27.6C297.7,550.1,267.8,545.3,263.5,522.5z"/>
		<ellipse class="st3" cx="219.6" cy="558.8" rx="2.6" ry="5"/>
		<ellipse transform="matrix(0.5458 -0.8379 0.8379 0.5458 -256.6281 415.5666)" class="st3" cx="255" cy="444.5" rx="5" ry="2.6"/>
		
			<ellipse transform="matrix(0.4404 -0.8978 0.8978 0.4404 -195.1594 663.762)" class="st3" cx="434.9" cy="488.4" rx="4.9" ry="9.3"/>
		<path class="st3" d="M259.9,437.7c-0.9,0.7-0.4-6.5,19.6-12.5c5.1-2.7,2.1-14.9,14.6-20.4s-8.6,10.2-10.1,21.7
			C282.5,438.1,275.3,425.2,259.9,437.7z"/>
	</g>
	<g>
		<path class="st3" d="M196.7,443.4c9.2-14.8,29.8-20.5,55.4-17.7c-31.8-8.1-58.8-4.1-69.3,12.9c-16,25.9,12,72.3,62.6,104.1
			C202.9,509.6,181.5,468,196.7,443.4z"/>
		<path class="st3" d="M262.7,368.1c17.2-27.9,53.9-40.3,100-38.2c-68.9-22.9-129.8-17.7-152,18.2c-30.2,48.9,22.5,136.4,118,196.4
			C264.3,482,235.5,412,262.7,368.1z"/>
	</g>
</g>
<g id="Signal">
	<path class="st20" d="M254.8,261.3c-5.7,1.2-11.1,4.1-15.2,8.9c-4,4.6-6.1,10.2-6.5,15.9c-0.2,2.6,0,5.2,0.6,7.7l7.9-0.6
		c-0.7-2.5-0.9-5.1-0.6-7.7c0.5-3.7,2-7.2,4.6-10.2c2.7-3.1,6.1-5.1,9.8-6.1c2.5-0.7,5.2-0.8,7.7-0.4l-0.4-7.9
		C260,260.6,257.4,260.8,254.8,261.3z"/>
	<path class="st20" d="M253.2,232c-13.4,1.7-26.2,8.1-35.7,19.1c-9.2,10.7-13.7,23.9-13.6,37.1c0,2.6,0.2,5.2,0.6,7.7l7.7-0.6
		c-0.4-2.6-0.6-5.1-0.6-7.7c0.1-11.2,3.9-22.3,11.8-31.4c8-9.3,18.9-14.9,30.2-16.4c2.6-0.3,5.2-0.5,7.7-0.4l-0.4-7.8
		C258.3,231.6,255.7,231.7,253.2,232z"/>
	<path class="st20" d="M254,247.1c-9.4,1.4-18.4,6.1-25.1,13.9c-6.5,7.6-9.8,16.9-10,26.1c-0.1,2.6,0.1,5.2,0.6,7.7l7.8-0.6
		c-0.5-2.6-0.7-5.1-0.6-7.7c0.3-7.3,3-14.5,8.1-20.5c5.3-6.1,12.3-9.9,19.7-11.1c2.6-0.4,5.2-0.6,7.8-0.4l-0.4-7.8
		C259.2,246.6,256.6,246.7,254,247.1z"/>
	<circle class="st20" cx="256.8" cy="285" r="7.3"/>
</g>
<g id="Navigation">
	<g>
		<g>
			<path class="st23" d="M28.3,520.4c0,0-0.8-1.7-1.9-4.5"/>
			<path class="st24" d="M23.4,506.7c-6.9-23.7-12-69.4,53.5-64.9c88,6.1,38.5-99.8-1.7-138s-9.3-119.4,82.7-98.6
				c71.5,16.2,72.2-26.5,69-46.3"/>
			<path class="st23" d="M226,154.2c-0.7-2.9-1.2-4.7-1.2-4.7"/>
		</g>
	</g>
	<path class="st3" d="M231.5,125.2c24.7-14.1,47.8-18.1,47.8-18.1l-17.7-5.4c-14.2,1.5-27.9,8.4-39.6,16.3c-5.5-3.8-10.9-6.8-15.5-8
		l-16.5,3.5c0,0,10.4,3.7,23.1,11c-13.9,11-23.1,21.8-23.1,21.8l10.3,3.2c6.9-7.5,14.7-13.8,22.5-19c7.7,5.2,15.5,11.5,21.8,19
		l9.5-3.2C254.2,146.4,243.7,135.2,231.5,125.2z"/>
	<g>
		<polygon class="st0" points="277.5,50.9 265.7,77 273.7,81.1 287.9,56.2 		"/>
		
			<rect x="262.5" y="81.7" transform="matrix(0.4542 -0.8909 0.8909 0.4542 68.4515 284.0872)" class="st0" width="7.1" height="9"/>
	</g>
	<g>
		<path class="st0" d="M82,205.5l-22.1-27.8c-8.2-10.3-3.5-26,9.3-29.4c0.4-0.1,0.8-0.2,1.1-0.3h0c0.4-0.1,0.8-0.1,1.1-0.2
			c13.1-1.9,23.6,10.7,20,23.4L82,205.5z"/>
		<circle class="st3" cx="74" cy="165.5" r="11.8"/>
	</g>
</g>
<g id="Paper_PLane">
	<g>
		<g>
			<polygon class="st25" points="660.6,207.3 661.8,163.5 740.9,209.6 			"/>
			<polygon class="st25" points="665.5,155.5 740.9,209.6 665.5,180.6 			"/>
			<polygon class="st3" points="687.1,139.9 740.9,209.6 665.5,155.5 			"/>
			<polygon class="st3" points="740.9,209.6 657.1,160.7 609.3,187.8 			"/>
		</g>
		<g>
			<path class="st26" d="M639,138.4c-185.9-194.6,105.5-4.2,164,62.2"/>
			<path class="st23" d="M642.4,141.9c1.1,1.1,2.2,2.3,3.4,3.4"/>
		</g>
	</g>
	<path class="st3" d="M600.2,150.1c-7.1,28.6,6.2,59.4,33.7,73.1c20,10,42.6,8.6,60.7-1.7c-18,14.1-43.3,17.5-65.1,6.6
		C600.5,213.8,588.1,179.6,600.2,150.1z"/>
	<path class="st3" d="M604.3,125.3c-23.3,18.2-31.7,50.6-18.5,78.4c9.6,20.2,28.3,33,48.8,36.1c-22.9,0-44.9-12.9-55.4-34.9
		C565.4,175.7,576.6,141,604.3,125.3z"/>
</g>
<g id="Scientist">
	<path class="st11" d="M136.3,448.9l15-4.1c5.4-1.5,8.5-7,7-12.4l0,0c-1.5-5.4-7-8.5-12.4-7l-15,4.1c-5.4,1.5-8.5,7-7,12.4l0,0
		C125.4,447.3,130.9,450.4,136.3,448.9z"/>
	<path class="st3" d="M158.3,434.5c-1.5-5.4-7-8.5-12.4-7l-15,4.1c-4.1,1.1-6.9,4.6-7.3,8.6c-0.5-4.8,2.5-9.4,7.3-10.8l15-4.1
		c5.4-1.5,10.9,1.7,12.4,7c0.3,1.3,0.4,2.5,0.3,3.8C158.5,435.6,158.4,435.1,158.3,434.5z"/>
	<path class="st27" d="M114.7,563.2h28.6c7.4,0,13.4-6,13.4-13.4v-73c0-7.4-6-13.4-13.4-13.4h-28.6c-7.4,0-13.4,6-13.4,13.4v73
		C101.3,557.2,107.3,563.2,114.7,563.2z"/>
	<path class="st27" d="M146.7,563.2L146.7,563.2c5.5,0,10-4.5,10-10v-79.8c0-5.5-4.5-10-10-10h0c-5.5,0-10,4.5-10,10v79.8
		C136.7,558.7,141.2,563.2,146.7,563.2z"/>
	<path class="st7" d="M124.6,466.7h6.5c1.6,0,2.9-1.3,2.9-2.9l0,0c0-1.6-1.3-2.9-2.9-2.9h-6.5c-1.6,0-2.9,1.3-2.9,2.9l0,0
		C121.8,465.4,123.1,466.7,124.6,466.7z"/>
	<rect x="132.2" y="513.3" class="st11" width="17.6" height="92.1"/>
	<path class="st27" d="M174.7,510.4L174.7,510.4c3.9-2.7,4.9-8,2.2-11.9l-21.4-31.3c-2.7-3.9-8-4.9-11.9-2.2h0
		c-3.9,2.7-4.9,8-2.2,11.9l21.4,31.3C165.5,512,170.8,513,174.7,510.4z"/>
	<path class="st7" d="M138.3,467.5h4.3c1.6,0,2.9-1.3,2.9-2.9l0,0c0-1.6-1.3-2.9-2.9-2.9h-4.3c-1.6,0-2.9,1.3-2.9,2.9l0,0
		C135.4,466.2,136.7,467.5,138.3,467.5z"/>
	<path class="st28" d="M132.2,528.8h3.2c8,0,14.5-6.5,14.5-14.5v-10.7c0-8-6.5-14.5-14.5-14.5h-3.2c-8,0-14.5,6.5-14.5,14.5v10.7
		C117.8,522.3,124.3,528.8,132.2,528.8z"/>
	<path class="st7" d="M134.9,517L134.9,517c9.4,0,17.1-7.6,17.1-17.1v-19.6c0-9.4-7.6-17.1-17.1-17.1h0c-9.4,0-17.1,7.6-17.1,17.1
		V500C117.8,509.4,125.4,517,134.9,517z"/>
	<path class="st28" d="M111.2,605.4h6.9c2.6,0,5-2.3,5.4-5.2l10.6-77.4h-17.1l-10.5,76.5C106.1,602.5,108.3,605.4,111.2,605.4z"/>
	<path class="st11" d="M111.9,594.5c4.7,0,8.7,3,10.2,7.2c0.6,1.8-0.7,3.7-2.6,3.7h-15.2c-1.9,0-3.2-1.9-2.6-3.7
		C103.3,597.5,107.3,594.5,111.9,594.5z"/>
	<path class="st0" d="M134.2,467.5L134.2,467.5c4.5,0,8.2-3.7,8.2-8.2v-8.5c0-4.5-3.7-8.2-8.2-8.2h0c-4.5,0-8.2,3.7-8.2,8.2v8.5
		C126,463.8,129.7,467.5,134.2,467.5z"/>
	<path class="st7" d="M124.6,467.5h6.5c1.6,0,2.9-1.3,2.9-2.9l0,0c0-1.6-1.3-2.9-2.9-2.9h-6.5c-1.6,0-2.9,1.3-2.9,2.9l0,0
		C121.8,466.2,123.1,467.5,124.6,467.5z"/>
	<path class="st11" d="M149.9,594.5c4.7,0,8.7,3,10.2,7.2c0.6,1.8-0.7,3.7-2.6,3.7h-15.2c-1.9,0-3.2-1.9-2.6-3.7
		C141.2,597.5,145.2,594.5,149.9,594.5z"/>
	<path class="st29" d="M114.7,562L114.7,562c7.4,0,13.4-6,13.4-13.4v-71.8c0-7.4-6-13.4-13.4-13.4h0c-7.4,0-13.4,6-13.4,13.4v71.8
		C101.3,556,107.3,562,114.7,562z"/>
	<circle class="st30" cx="179.7" cy="499.7" r="2"/>
	<path class="st4" d="M180.9,520.1L180.9,520.1c3.9-2.6,4.9-7.9,2.3-11.8l-6.7-9.9c-2.6-3.9-7.9-4.9-11.8-2.3h0
		c-3.9,2.6-4.9,7.9-2.3,11.8l6.7,9.9C171.7,521.7,177,522.7,180.9,520.1z"/>
	<circle class="st31" cx="179.7" cy="505.7" r="6.5"/>
	<path class="st32" d="M179.7,499.2c1.8,0,3.5,0.8,4.7,2c-1.2,1.2-2.8,2-4.7,2c-1.8,0-3.5-0.8-4.7-2
		C176.2,499.9,177.9,499.2,179.7,499.2z"/>
	<circle class="st7" cx="179.7" cy="514.9" r="8.6"/>
	<circle class="st14" cx="180.6" cy="512.5" r="8.6"/>
	<path class="st29" d="M85.7,510.4L85.7,510.4c-3.9-2.7-4.9-8-2.2-11.9l21.4-31.3c2.7-3.9,8-4.9,11.9-2.2h0c3.9,2.7,4.9,8,2.2,11.9
		l-21.4,31.3C94.9,512,89.6,513,85.7,510.4z"/>
	<path class="st4" d="M82.4,505.2L82.4,505.2c-0.8-4.6,2.3-9.1,6.9-9.9l20.9-3.7c4.6-0.8,9.1,2.3,9.9,6.9l0,0
		c0.8,4.6-2.3,9.1-6.9,9.9l-20.9,3.7C87.6,513,83.2,509.9,82.4,505.2z"/>
	<circle class="st7" cx="116.6" cy="498.2" r="8.6"/>
	<circle class="st14" cx="120.4" cy="496.3" r="8.6"/>
	<path class="st11" d="M142.4,509L142.4,509c0.7,0,1.3-0.6,1.3-1.3v-35.3c0-0.7-0.6-1.3-1.3-1.3l0,0c-0.7,0-1.3,0.6-1.3,1.3v35.3
		C141.1,508.4,141.6,509,142.4,509z"/>
	<path class="st14" d="M138.4,461.2L138.4,461.2c8,0,14.4-6.5,14.4-14.4v-8.3c0-8-6.5-14.4-14.4-14.4h0c-8,0-14.4,6.5-14.4,14.4v8.3
		C124,454.8,130.4,461.2,138.4,461.2z"/>
	<path class="st15" d="M145.6,431.8c2.2,0,4.2,0.4,6.1,1.2c0.7,1.7,1.1,3.5,1.1,5.5v8.3c0,8-6.5,14.4-14.4,14.4h0
		c-0.3,0-0.6,0-0.8,0c-4.6-2.8-7.7-7.8-7.7-13.6C129.8,438.9,136.9,431.8,145.6,431.8z"/>
	<path class="st11" d="M130.6,442.4l15-4.1c5.4-1.5,8.5-7,7-12.4l0,0c-1.5-5.4-7-8.5-12.4-7l-15,4.1c-5.4,1.5-8.5,7-7,12.4l0,0
		C119.7,440.8,125.3,443.9,130.6,442.4z"/>
	<path class="st3" d="M152.5,428.5c-1.5-5.4-7-8.5-12.4-7l-15,4.1c-3.9,1.1-6.6,4.3-7.2,8c-0.4-4.7,2.6-9.3,7.4-10.6l15-4.1
		c5.4-1.5,10.9,1.7,12.4,7c0.4,1.5,0.5,3,0.2,4.4C152.8,429.7,152.7,429.1,152.5,428.5z"/>
	<path class="st11" d="M125.2,446.4l5.6-1.5c3.3-0.9,5.2-4.3,4.3-7.6l0,0c-0.9-3.3-4.3-5.2-7.6-4.3l-5.6,1.5
		c-3.3,0.9-5.2,4.3-4.3,7.6l0,0C118.6,445.4,122,447.3,125.2,446.4z"/>
	<circle class="st14" cx="125.1" cy="445" r="4.6"/>
	<path class="st33" d="M149,445.5c1.1,0,2.1-0.8,2.3-1.9c0,0.2,0,0.3,0,0.5c0,1.3-1,2.3-2.3,2.3c-1.3,0-2.3-1-2.3-2.3
		c0-0.2,0-0.3,0-0.5C147,444.7,147.9,445.5,149,445.5z"/>
	<path class="st33" d="M138.9,445.5c1.1,0,2.1-0.8,2.3-1.9c0,0.2,0,0.3,0,0.5c0,1.3-1,2.3-2.3,2.3c-1.3,0-2.3-1-2.3-2.3
		c0-0.2,0-0.3,0-0.5C136.8,444.7,137.8,445.5,138.9,445.5z"/>
	<path class="st3" d="M142.6,457.6c-1.1,0-2-0.6-2.4-1.6c-0.2-0.4,0.1-0.9,0.6-0.9l3.5-0.1c0.4,0,0.7,0.4,0.6,0.8
		C144.6,456.9,143.7,457.6,142.6,457.6z"/>
	<path class="st3" d="M122.3,522.6v3.9c0,4.5-3.6,8.1-8.1,8.1s-8.1-3.6-8.1-8.1v-3.9H122.3z"/>
	<path class="st34" d="M152,498.2h51.3c3.6,0,7.5-2.9,8.8-6.5l7.6-21.4c1.3-3.6-0.6-6.5-4.2-6.5h-51.3c-3.6,0-7.5,2.9-8.8,6.5
		l-7.6,21.4C146.5,495.3,148.4,498.2,152,498.2z"/>
	<polygon class="st35" points="159.3,470.7 162.9,470.6 164.1,467 170.4,467 169.1,470.6 172.6,470.6 170.5,476.8 166.9,476.8 
		165.6,480.4 159.4,480.4 160.6,476.8 157.1,476.9 	"/>
	<g class="st36">
		<path class="st3" d="M177.2,475.3L177.2,475.3l3-4.8h1.6l-2.3,6.5h-1.2l1.5-4.1l0,0L177,477h-0.8l0.3-4.1l0,0L175,477h-1.3
			l2.3-6.5h1.6L177.2,475.3z"/>
		<path class="st3" d="M184.7,474.1h-2L182,476h2.4l-0.3,1h-3.6l2.3-6.5h3.6l-0.4,1h-2.4l-0.6,1.7h2L184.7,474.1z"/>
		<path class="st3" d="M184.9,477l2.3-6.5h2c0.7,0,1.1,0.3,1.4,0.8c0.3,0.5,0.3,1.2,0,1.9l-0.4,1.1c-0.3,0.8-0.7,1.4-1.4,2
			c-0.6,0.5-1.3,0.8-2,0.8H184.9z M188.1,471.5l-1.6,4.5h0.7c0.3,0,0.6-0.2,1-0.5c0.3-0.3,0.6-0.7,0.7-1.2l0.4-1.1
			c0.2-0.5,0.2-0.9,0.1-1.2c-0.1-0.3-0.3-0.5-0.6-0.5H188.1z"/>
		<path class="st3" d="M193.3,474.7H191l0.4-1h2.3L193.3,474.7z"/>
		<path class="st3" d="M199.4,471.5h-1.5l-2,5.5h-1.3l2-5.5h-1.5l0.4-1h4.3L199.4,471.5z"/>
		<path class="st3" d="M202.4,474.1h-2l-0.7,1.9h2.4l-0.3,1h-3.6l2.3-6.5h3.6l-0.4,1h-2.4l-0.6,1.7h2L202.4,474.1z"/>
		<path class="st3" d="M207.5,475L207.5,475c-0.2,0.7-0.6,1.2-1.1,1.6c-0.5,0.3-1.1,0.5-1.8,0.5c-0.7,0-1.2-0.2-1.4-0.6
			c-0.3-0.4-0.3-1,0-1.8l0.7-1.9c0.3-0.8,0.7-1.3,1.2-1.8c0.5-0.4,1.2-0.6,1.8-0.6c0.7,0,1.2,0.2,1.5,0.5c0.3,0.3,0.3,0.9,0,1.6l0,0
			h-1.2c0.1-0.4,0.2-0.7,0.1-0.9c-0.1-0.2-0.3-0.2-0.6-0.2c-0.3,0-0.6,0.1-0.8,0.3c-0.2,0.2-0.4,0.6-0.6,1l-0.7,1.9
			c-0.2,0.5-0.2,0.8-0.1,1c0.1,0.2,0.3,0.3,0.6,0.3c0.3,0,0.6-0.1,0.8-0.2c0.2-0.2,0.4-0.5,0.5-0.9H207.5z"/>
		<path class="st3" d="M212.2,477h-1.3l1-2.7h-2.1l-1,2.7h-1.3l2.3-6.5h1.3l-1,2.8h2.1l1-2.8h1.3L212.2,477z"/>
	</g>
	<polygon class="st35" points="173.7,483.6 155.8,483.6 156,483.1 173.8,483.1 	"/>
	<polygon class="st35" points="166.2,484.5 155.5,484.5 155.7,484 166.4,484 	"/>
	<polygon class="st35" points="165.9,485.4 155.2,485.4 155.4,484.9 166.1,484.9 	"/>
	<polygon class="st35" points="166.4,486.2 154.9,486.2 155.1,485.8 166.6,485.8 	"/>
	<polygon class="st35" points="170.2,487.1 154.6,487.1 154.7,486.7 170.4,486.7 	"/>
	<polygon class="st35" points="163.9,488 154.3,488 154.4,487.5 164.1,487.5 	"/>
	<polygon class="st35" points="166.5,488.9 153.9,488.9 154.1,488.4 166.7,488.4 	"/>
	<polygon class="st35" points="167.7,489.8 153.6,489.8 153.8,489.3 167.9,489.3 	"/>
	<polygon class="st37" points="151.7,489.8 152.9,489.8 155.3,483 154.2,483 	"/>
	<path class="st37" d="M190.8,487.8c0.3,0.4,0.9,0.7,1.8,0.9c-1.2,1.2-2,2.3-1.7,2.8c0.1,0.1,0.2,0.2,0.4,0.2c0.1,0,0.1,0,0.2,0
		c0.6,0,1.5-0.4,2.5-0.9c-0.1,1-0.1,1.8,0.2,2.2c0.1,0.2,0.3,0.3,0.5,0.3c0,0,0,0,0,0c0.7,0,1.5-1.1,2.4-2.6
		c0.6,0.5,1.2,0.9,1.7,0.9c0.1,0,0.2,0,0.3,0c0.2,0,0.5-0.1,0.6-0.2c0.6-0.5,0.6-1.6,0.2-2.9c1.6-0.3,2.9-0.8,3.1-1.5
		c0.1-0.2,0-0.5-0.1-0.7c-0.3-0.4-0.9-0.7-1.8-0.9c1.2-1.2,2-2.3,1.7-2.8c-0.1-0.1-0.2-0.2-0.4-0.2c-0.1,0-0.1,0-0.2,0
		c-0.6,0-1.5,0.4-2.5,0.9c0.1-1,0.1-1.8-0.2-2.2c-0.1-0.2-0.3-0.3-0.5-0.3c-0.7,0-1.5,1.1-2.4,2.6c-0.6-0.5-1.2-0.9-1.7-0.9
		c-0.4-0.1-0.7,0-0.9,0.2c-0.6,0.5-0.6,1.6-0.2,2.9c-1.6,0.3-2.9,0.8-3.1,1.5C190.6,487.3,190.7,487.5,190.8,487.8z M196.4,484
		c-0.2,0.4-0.5,0.9-0.7,1.4c-0.5,0-1,0.1-1.4,0.2c-0.4-1.2-0.3-2.1,0-2.4c0.1-0.1,0.2-0.1,0.4-0.1c0.1,0,0.1,0,0.2,0
		C195.3,483.2,195.8,483.5,196.4,484z M197,490c-0.2-0.2-0.4-0.4-0.6-0.6c0.2-0.1,0.4-0.3,0.6-0.4c0.1,0,0.3,0,0.4,0
		C197.3,489.3,197.1,489.7,197,490z M196.7,484.3c0.2,0.2,0.4,0.4,0.6,0.6c-0.2,0.1-0.4,0.3-0.6,0.4c-0.1,0-0.3,0-0.4,0
		C196.4,485,196.6,484.6,196.7,484.3z M195.7,486.7c0.2-0.1,0.4-0.3,0.6-0.4c0.2-0.1,0.4-0.3,0.6-0.4c0.2,0,0.4,0,0.6,0
		c0.2,0,0.3,0,0.5,0c0.1,0.1,0.2,0.2,0.3,0.4c0.1,0.1,0.1,0.3,0.2,0.4c-0.1,0.2-0.1,0.4-0.2,0.6c-0.1,0.2-0.2,0.4-0.2,0.6
		c-0.2,0.1-0.4,0.3-0.6,0.4c-0.2,0.1-0.4,0.3-0.6,0.4c-0.2,0-0.4,0-0.6,0c-0.2,0-0.3,0-0.5,0c-0.1-0.1-0.2-0.2-0.3-0.4
		c-0.1-0.1-0.1-0.3-0.2-0.4c0.1-0.2,0.1-0.4,0.2-0.6C195.5,487,195.6,486.9,195.7,486.7z M197.6,485.3
		C197.6,485.3,197.6,485.3,197.6,485.3C197.6,485.3,197.6,485.3,197.6,485.3C197.6,485.3,197.6,485.3,197.6,485.3z M198,485
		c0.4-0.2,0.7-0.5,1.1-0.7c-0.1,0.3-0.1,0.6-0.2,1c-0.2,0-0.4,0-0.6,0C198.1,485.2,198,485.1,198,485z M198.6,485.8c0,0,0,0.1,0,0.1
		C198.6,485.9,198.6,485.9,198.6,485.8c-0.1,0-0.1,0-0.1,0C198.6,485.8,198.6,485.8,198.6,485.8z M199.1,485.9
		c0.3,0,0.6,0.1,0.9,0.1c-0.3,0.3-0.6,0.5-0.9,0.8c-0.1-0.1-0.1-0.2-0.2-0.3C199,486.3,199.1,486.1,199.1,485.9z M198.8,487.1
		C198.7,487.1,198.7,487.1,198.8,487.1C198.7,487.1,198.7,487.1,198.8,487.1C198.7,487.1,198.7,487.1,198.8,487.1z M199,487.5
		c0.1,0.3,0.2,0.5,0.3,0.8c-0.3,0.1-0.7,0.1-1.1,0.1c0.1-0.2,0.1-0.3,0.2-0.5C198.6,487.8,198.8,487.7,199,487.5z M196.1,489
		C196.1,489,196.1,489,196.1,489C196.1,489,196.1,489,196.1,489C196.2,489,196.1,489,196.1,489z M195.7,489.3
		c-0.4,0.2-0.7,0.5-1.1,0.7c0.1-0.3,0.1-0.6,0.2-1c0.2,0,0.4,0,0.6,0C195.6,489.1,195.7,489.2,195.7,489.3z M195.1,488.5
		c0,0,0-0.1,0-0.1C195.1,488.4,195.1,488.4,195.1,488.5c0.1,0,0.1,0,0.1,0C195.1,488.5,195.1,488.5,195.1,488.5z M194.6,488.5
		c-0.3,0-0.6-0.1-0.9-0.1c0.3-0.3,0.6-0.5,0.9-0.8c0.1,0.1,0.1,0.2,0.2,0.3C194.7,488.1,194.6,488.3,194.6,488.5z M195,487.2
		C195,487.2,195,487.2,195,487.2C195,487.2,195,487.2,195,487.2C195,487.2,195,487.2,195,487.2z M194.7,486.8
		c-0.1-0.3-0.2-0.5-0.3-0.8c0.3-0.1,0.7-0.1,1.1-0.1c-0.1,0.2-0.1,0.3-0.2,0.5C195.1,486.5,194.9,486.6,194.7,486.8z M199.1,483.8
		c-0.5,0.3-1,0.6-1.4,0.9c-0.2-0.3-0.5-0.5-0.7-0.8c0.8-1.5,1.6-2.4,2-2.4c0,0,0.1,0,0.1,0.1C199.3,481.8,199.3,482.6,199.1,483.8z
		 M200.5,485.6c-0.4-0.1-0.8-0.1-1.2-0.2c0.1-0.5,0.2-0.9,0.3-1.3c1.3-0.7,2.3-1.1,2.7-1c0.1,0,0.1,0,0.1,0
		C202.5,483.3,201.9,484.2,200.5,485.6z M199.8,488.2c-0.1-0.3-0.3-0.7-0.4-1c0.4-0.4,0.9-0.8,1.3-1.2c1,0.2,1.7,0.5,1.9,0.8
		c0.1,0.1,0.1,0.2,0,0.2C202.4,487.5,201.4,488,199.8,488.2z M197.3,490.4c0.2-0.4,0.5-0.9,0.7-1.4c0.5,0,1-0.1,1.4-0.2
		c0.4,1.2,0.3,2.1,0,2.4c-0.1,0.1-0.3,0.1-0.6,0.1C198.4,491.2,197.9,490.8,197.3,490.4z M194.6,490.6c0.5-0.3,1-0.6,1.4-0.9
		c0.2,0.3,0.5,0.5,0.7,0.8c-0.8,1.5-1.6,2.4-2,2.4c0,0,0,0,0,0c0,0-0.1,0-0.1-0.1C194.4,492.5,194.4,491.7,194.6,490.6z
		 M193.2,488.8c0.4,0.1,0.8,0.1,1.2,0.2c-0.1,0.5-0.2,0.9-0.3,1.3c-1.3,0.7-2.3,1.1-2.7,1c-0.1,0-0.1,0-0.1,0
		C191.2,491,191.8,490.1,193.2,488.8z M191.1,487.2c0.2-0.4,1.2-0.9,2.8-1.2c0.1,0.3,0.3,0.7,0.4,1c-0.4,0.4-0.9,0.8-1.3,1.2
		c-1-0.2-1.7-0.5-1.9-0.8C191.1,487.4,191.1,487.3,191.1,487.2z"/>
	<path class="st35" d="M189.9,483.9c0.3-0.4,0.9-0.7,1.7-0.8l-0.1,0.4c-0.4,0-1,0.2-1.3,0.5c-0.4,0.5,0,1.3,0.8,2.3
		c1,1,2.5,2.1,4.3,3c1.6,0.8,3.3,1.3,4.7,1.6c0.3-0.5,0.9-0.9,1.5-0.9c0.6,0,0.9,0.5,0.8,1.1c0.6-0.1,1-0.2,1.2-0.5
		c0.3-0.3,0.2-0.9-0.3-1.6l0.4-0.3c0.6,0.8,0.6,1.5,0.2,2.1c-0.4,0.5-1,0.7-1.7,0.8c-0.3,0.5-0.9,0.9-1.4,0.9c-0.6,0-0.9-0.4-0.8-1
		c-1.5-0.3-3.2-0.8-4.9-1.6c-1.8-0.9-3.4-2-4.4-3C189.9,485.9,189.2,484.8,189.9,483.9z"/>
	
		<ellipse transform="matrix(0.7666 -0.6421 0.6421 0.7666 -266.8767 240.0772)" class="st35" cx="196.8" cy="487.2" rx="1.1" ry="0.8"/>
	<path class="st35" d="M179.9,493.5c0.2,0,0.3,0.2,0.4,0.4h3.4c0.1,0,0.1,0,0.1,0.1l1,1.6h6.4l2.2-1.6c0.1-0.1,0.3-0.1,0.3,0
		c0.1,0.1,0,0.2-0.1,0.3l-2.3,1.7c-0.1,0-0.1,0.1-0.2,0.1h-6.6c-0.1,0-0.1,0-0.1-0.1l-1-1.6h-3.3c-0.2,0.2-0.4,0.3-0.6,0.3
		c-0.3,0-0.5-0.3-0.4-0.6C179.3,493.7,179.6,493.5,179.9,493.5z"/>
	<path class="st35" d="M179.5,488.3c0.2,0,0.3,0.2,0.4,0.4h5c0.1,0,0.1,0,0.1,0.1l1.5,2.4h3.5c0.1,0,0.2,0.1,0.1,0.2
		c0,0.1-0.2,0.2-0.3,0.2h-3.6c-0.1,0-0.1,0-0.1-0.1l-1.5-2.4h-4.9c-0.2,0.2-0.4,0.4-0.6,0.4c-0.3,0-0.5-0.3-0.4-0.6
		C178.9,488.5,179.2,488.3,179.5,488.3z"/>
	<path class="st35" d="M181.5,485.9c0.2,0,0.3,0.2,0.4,0.4h3.3c0.1,0,0.1,0,0.1,0.1l0.5,0.8h3.6c0.1,0,0.2,0.1,0.1,0.2
		s-0.2,0.2-0.3,0.2h-3.7c-0.1,0-0.1,0-0.1-0.1l-0.5-0.8h-3.2c-0.2,0.2-0.4,0.4-0.6,0.4c-0.3,0-0.5-0.3-0.4-0.6
		C180.8,486.1,181.2,485.9,181.5,485.9z"/>
	<path class="st35" d="M184.9,479.6c0.2,0,0.3,0.2,0.4,0.4h6.6c0.1,0,0.1,0,0.1,0.1l1.1,1.6c0.1,0.1,0,0.2-0.1,0.3
		c-0.1,0-0.1,0.1-0.2,0.1s-0.1,0-0.1-0.1l-1-1.6h-6.5c-0.2,0.2-0.4,0.4-0.6,0.4c-0.3,0-0.5-0.3-0.4-0.6
		C184.3,479.9,184.6,479.6,184.9,479.6z"/>
</g>
<g id="Flying_books">
	<g>
		<g>
			<path class="st2" d="M52.8,335c0,0,3.1-29.7,39.1-13.4s36,16.3,36,16.3l0,0c0,0-28.6-6.2-36.6,16.3L52.8,335z"/>
		</g>
		<g>
			<path class="st2" d="M89.2,320.4c0,0-0.6-23.8,35.8-8.4c27.5,11.6,31.2,15,31.2,15s-20.3-11.6-28.4,10.8L89.2,320.4z"/>
		</g>
		<g>
			<path class="st3" d="M51.4,332.6c0,0,3.1-29.7,39.1-13.4s36,16.3,36,16.3l0,0c0,0-28.6-6.2-36.6,16.3L51.4,332.6z"/>
		</g>
		<g>
			<path class="st4" d="M87.8,318c0,0-0.6-23.8,35.8-8.4c27.5,11.6,31.2,15,31.2,15s-20.3-11.6-28.4,10.8L87.8,318z"/>
		</g>
		<g>
			<path class="st17" d="M60.9,330.3c-0.1,0-0.2,0-0.3-0.1c-0.3-0.2-0.4-0.5-0.2-0.8c0.1-0.2,9.5-15.3,26.1-10.5
				c0.3,0.1,0.5,0.4,0.4,0.7c-0.1,0.3-0.4,0.5-0.7,0.4c-15.7-4.6-24.7,9.9-24.8,10C61.3,330.2,61.1,330.3,60.9,330.3z"/>
		</g>
		<g>
			<path class="st17" d="M67.8,332.9c-0.1,0-0.2,0-0.3-0.1c-0.3-0.2-0.4-0.5-0.2-0.8c0.1-0.2,9.5-15.4,26.1-10.5
				c0.3,0.1,0.5,0.4,0.4,0.7c-0.1,0.3-0.4,0.5-0.7,0.4c-15.8-4.6-24.7,9.9-24.8,10C68.1,332.8,68,332.9,67.8,332.9z"/>
		</g>
		<g>
			<path class="st17" d="M74.6,335.6c-0.1,0-0.2,0-0.3-0.1c-0.3-0.2-0.4-0.5-0.2-0.8c0.1-0.2,9.5-15.3,26.1-10.5
				c0.3,0.1,0.5,0.4,0.4,0.7c-0.1,0.3-0.4,0.5-0.7,0.4c-15.8-4.6-24.7,9.9-24.8,10C75,335.5,74.8,335.6,74.6,335.6z"/>
		</g>
		<g>
			<path class="st17" d="M81.4,338.2c-0.1,0-0.2,0-0.3-0.1c-0.3-0.2-0.4-0.5-0.2-0.8c0.1-0.2,9.5-15.3,26.1-10.5
				c0.3,0.1,0.5,0.4,0.4,0.7c-0.1,0.3-0.4,0.5-0.7,0.4c-15.8-4.6-24.7,9.9-24.8,10C81.8,338.1,81.6,338.2,81.4,338.2z"/>
		</g>
	</g>
	<g>
		<g>
			<path class="st0" d="M169,371.8c0,0-11.3-18.8-30.2,3.3s-18.9,22-18.9,22l0,0c0,0,17.1-13,29.4-0.6L169,371.8z"/>
		</g>
		<g>
			<path class="st0" d="M140.2,373.5c0,0-7-16-26.4,5.6c-14.6,16.3-16.1,19.7-16.1,19.7s9.9-14.1,22.2-1.7L140.2,373.5z"/>
		</g>
		<g>
			<path class="st3" d="M169.2,369.8c0,0-11.3-18.8-30.2,3.3s-18.9,22-18.9,22l0,0c0,0,17.1-13,29.4-0.6L169.2,369.8z"/>
		</g>
		<g>
			<path class="st4" d="M140.4,371.4c0,0-7-16-26.4,5.6c-14.6,16.3-16.1,19.7-16.1,19.7s9.9-14.1,22.2-1.7L140.4,371.4z"/>
		</g>
		<g>
			<path class="st17" d="M162.1,371.2c0.1,0,0.1-0.1,0.2-0.1c0.1-0.2,0.1-0.5-0.1-0.6c-0.1-0.1-11.1-7.3-20.6,1.1
				c-0.2,0.2-0.2,0.4,0,0.6c0.2,0.2,0.4,0.2,0.6,0c9-7.9,19.5-1.1,19.6-1C161.8,371.3,162,371.3,162.1,371.2z"/>
		</g>
		<g>
			<path class="st17" d="M158.4,375.1c0.1,0,0.1-0.1,0.2-0.1c0.1-0.2,0.1-0.5-0.1-0.6c-0.1-0.1-11.1-7.3-20.6,1.1
				c-0.2,0.2-0.2,0.4,0,0.6c0.2,0.2,0.4,0.2,0.6,0c9.1-7.9,19.5-1.1,19.6-1C158.1,375.1,158.3,375.1,158.4,375.1z"/>
		</g>
		<g>
			<path class="st17" d="M154.7,379c0.1,0,0.1-0.1,0.2-0.1c0.1-0.2,0.1-0.5-0.1-0.6c-0.1-0.1-11.1-7.3-20.6,1.1
				c-0.2,0.2-0.2,0.4,0,0.6c0.2,0.2,0.4,0.2,0.6,0c9.1-7.9,19.5-1.1,19.6-1C154.4,379,154.6,379,154.7,379z"/>
		</g>
		<g>
			<path class="st17" d="M151,382.9c0.1,0,0.1-0.1,0.2-0.1c0.1-0.2,0.1-0.5-0.1-0.6c-0.1-0.1-11.1-7.3-20.6,1.1
				c-0.2,0.2-0.2,0.4,0,0.6s0.4,0.2,0.6,0c9.1-7.9,19.5-1.1,19.6-1C150.7,382.9,150.9,382.9,151,382.9z"/>
		</g>
	</g>
</g>
<g id="Ground">
	<path class="st2" d="M815.2,655h-692c-26.5,0-48-21.5-48-48l0,0h787.9l0,0C863.1,633.5,841.6,655,815.2,655z"/>
	<g>
		<rect y="605.3" class="st3" width="943.1" height="6.9"/>
	</g>
	<path class="st7" d="M818.7,647.9H345.3c-3.6,0-6.6-2.9-6.6-6.6l0,0c0-3.6,2.9-6.6,6.6-6.6h473.4c3.6,0,6.6,2.9,6.6,6.6l0,0
		C825.3,645,822.3,647.9,818.7,647.9z"/>
	<path class="st7" d="M319.7,647.9h-79.1c-3.6,0-6.6-2.9-6.6-6.6l0,0c0-3.6,2.9-6.6,6.6-6.6h79.1c3.6,0,6.6,2.9,6.6,6.6l0,0
		C326.3,645,323.3,647.9,319.7,647.9z"/>
</g>
</svg>
